<svg xmlns="http://www.w3.org/2000/svg" viewBox="0 0 1052.29 969.54"><defs><style>.cls-1{fill:#231624;}.cls-2{fill:#3e499e;}.cls-3{fill:#3963af;}.cls-4{fill:#ef3d31;}.cls-5{fill:#f2675b;}</style></defs><g id="Layer_2" data-name="Layer 2"><g id="Layer_1-2" data-name="Layer 1"><path class="cls-1" d="M692.91,378.67h0a7.68,7.68,0,0,1-7.46-8.06c.93-18.7,4.21-68,14.38-116.73,17.87-85.81,47.76-129.33,88.81-129.33S858.86,168.14,875.16,254c9.27,48.76,11.65,98,12.22,116.75a7.67,7.67,0,0,1-15.34.38c-1.72-71-19.12-231.15-83.4-231.15-64.44,0-84.81,160.24-87.85,231.3a7.69,7.69,0,0,1-7.88,7.36Z"/><polygon class="cls-2" points="1052.29 969.54 495.42 969.54 572.15 349.79 975.62 349.79 1052.29 969.54 1052.29 969.54"/><polygon class="cls-3" points="1024.13 969.54 467.25 969.54 543.97 349.79 947.43 349.79 1024.13 969.54 1024.13 969.54"/><polygon class="cls-2" points="745.68 765.56 825.81 807.7 810.53 718.46 875.33 655.28 785.75 642.24 745.68 561.07 705.64 642.24 616.06 655.28 680.87 718.46 665.55 807.7 745.68 765.56 745.68 765.56"/><path class="cls-2" d="M676.13,380.87a19,19,0,1,1-19-19,19,19,0,0,1,19,19Z"/><path class="cls-2" d="M870.7,380.87a19,19,0,1,1-19-19,19,19,0,0,1,19,19Z"/><path class="cls-1" d="M657.53,378.67h0a8,8,0,0,1-7.7-8.3c1-19.35,4.37-70.31,14.86-120.71,18.49-88.76,49.4-133.73,91.84-133.73S829.16,161,846,249.8c9.54,50.41,12,101.37,12.62,120.69a7.94,7.94,0,0,1-15.88.43c-1.78-73.44-19.77-239-86.24-239-66.63,0-87.7,165.73-90.84,239.2a8,8,0,0,1-8.16,7.6Z"/><path class="cls-1" d="M256.3,298.39h0a8.67,8.67,0,0,1-8.46-9.15c1.06-21.18,4.77-77.16,16.33-132.54C284.46,59.22,318.38,9.81,365,9.81s79.81,49.48,98.32,147c10.52,55.41,13.2,111.34,13.85,132.59a8.71,8.71,0,1,1-17.41.49c-1.95-80.67-21.72-262.6-94.76-262.6S268.7,209.4,265.25,290.09a8.7,8.7,0,0,1-8.95,8.3Z"/><polygon class="cls-4" points="664.49 969.54 32.01 969.54 119.13 265.62 577.39 265.62 664.49 969.54 664.49 969.54"/><polygon class="cls-5" points="632.51 969.54 0 969.54 87.11 265.62 545.38 265.62 632.51 969.54 632.51 969.54"/><path class="cls-4" d="M336.06,779.64h.34A137.44,137.44,0,0,0,473.8,642.53v-1.11c.16-75.79-61.33-137.57-137.09-137.74h-1.45c-75.63,0-137.23,61.42-137.41,137.06v1.14A137.46,137.46,0,0,0,335,779.64Zm.34,10.05h-1.48A147.44,147.44,0,0,1,187.78,641.88v-1.14c.17-81.22,66.32-147.13,147.48-147.13h1.45c81.34.17,147.36,66.47,147.18,147.83v1.12A147.46,147.46,0,0,1,336.4,789.69Z"/><path class="cls-4" d="M338.38,739.89h0a5.14,5.14,0,0,1-3.57-1.48l-71.36-71.73a59,59,0,0,1,.17-83.25c9.81-9.8,22.2-14.42,34.94-13.18C313,571.69,327,580.58,338.7,595.6c11.7-15,25.8-23.81,40.3-25.19,12.74-1.18,25.08,3.55,34.84,13.34a59.05,59.05,0,0,1-.19,83.29l-71.71,71.4a5.2,5.2,0,0,1-3.56,1.45Z"/><path class="cls-4" d="M237.19,300.93a21.59,21.59,0,1,1-21.56-21.62,21.58,21.58,0,0,1,21.56,21.62Z"/><path class="cls-4" d="M458.24,300.93a21.59,21.59,0,1,1-21.6-21.62,21.59,21.59,0,0,1,21.6,21.62Z"/><path class="cls-1" d="M216.13,298.39h0a9,9,0,0,1-8.74-9.42c1.09-22,4.93-79.84,16.86-137.08C245.26,51.08,280.35,0,328.56,0s82.5,51.15,101.67,152.06c10.85,57.26,13.65,115.11,14.32,137.06a9,9,0,1,1-18,.51c-2-83.42-22.46-271.54-98-271.54S229,206.33,225.4,289.8a9,9,0,0,1-9.27,8.59Z"/></g></g></svg>