<svg xmlns="http://www.w3.org/2000/svg" viewBox="0 0 1573.17 2917.04"><defs><style>.cls-1{fill:#231624;}.cls-2{fill:#3e499e;}.cls-3{fill:#3963af;}.cls-4{fill:#ef3d31;}.cls-5{fill:#f2675b;}.cls-6{fill:#a74d2e;}.cls-7{fill:#f6a72e;}.cls-8{fill:#e27d29;}.cls-9{fill:#fff;}.cls-10{fill:#5a4a57;}.cls-11{fill:#3d303e;}.cls-12{fill:#793323;}.cls-13{fill:#833826;}</style></defs><g id="Layer_2" data-name="Layer 2"><g id="Layer_1-2" data-name="Layer 1"><path class="cls-1" d="M1213.79,2326.17h0a7.69,7.69,0,0,1-7.46-8.06c.93-18.7,4.21-68,14.38-116.73,17.87-85.81,47.76-129.33,88.81-129.33s70.22,43.59,86.52,129.48c9.28,48.76,11.65,98,12.22,116.74a7.67,7.67,0,0,1-15.33.39c-1.73-71-19.13-231.15-83.41-231.15-64.44,0-84.81,160.24-87.85,231.3a7.69,7.69,0,0,1-7.88,7.36Z"/><polygon class="cls-2" points="1573.17 2917.04 1016.3 2917.04 1093.03 2297.29 1496.5 2297.29 1573.17 2917.04 1573.17 2917.04"/><polygon class="cls-3" points="1545.01 2917.04 988.13 2917.04 1064.85 2297.29 1468.32 2297.29 1545.01 2917.04 1545.01 2917.04"/><polygon class="cls-2" points="1266.56 2713.06 1346.69 2755.2 1331.41 2665.96 1396.21 2602.78 1306.63 2589.74 1266.56 2508.57 1226.52 2589.74 1136.94 2602.78 1201.75 2665.96 1186.43 2755.2 1266.56 2713.06 1266.56 2713.06"/><path class="cls-2" d="M1197,2328.37a19,19,0,1,1-19-19,19,19,0,0,1,19,19Z"/><path class="cls-2" d="M1391.59,2328.37a19,19,0,1,1-19-19,19,19,0,0,1,19,19Z"/><path class="cls-1" d="M1178.41,2326.17h0a8,8,0,0,1-7.7-8.31c1-19.34,4.37-70.3,14.86-120.71,18.49-88.75,49.4-133.72,91.84-133.72s72.63,45,89.5,133.87c9.54,50.4,12,101.36,12.62,120.69a7.94,7.94,0,0,1-15.88.43c-1.78-73.44-19.76-239.05-86.24-239.05s-87.7,165.73-90.84,239.19a8,8,0,0,1-8.16,7.61Z"/><path class="cls-1" d="M777.18,2245.89h0a8.65,8.65,0,0,1-8.45-9.15c1-21.18,4.77-77.17,16.32-132.55,20.29-97.47,54.21-146.89,100.85-146.89s79.81,49.49,98.32,147c10.52,55.4,13.2,111.34,13.85,132.59a8.71,8.71,0,1,1-17.41.49c-1.95-80.67-21.72-262.61-94.76-262.61s-96.32,182.08-99.77,262.77a8.7,8.7,0,0,1-9,8.31Z"/><polygon class="cls-4" points="1185.37 2917.04 552.89 2917.04 640.01 2213.12 1098.28 2213.12 1185.37 2917.04 1185.37 2917.04"/><polygon class="cls-5" points="1153.39 2917.04 520.88 2917.04 608 2213.12 1066.26 2213.12 1153.39 2917.04 1153.39 2917.04"/><path class="cls-4" d="M856.94,2727.14h.34A137.44,137.44,0,0,0,994.68,2590v-1.11c.17-75.79-61.32-137.57-137.09-137.74h-1.45c-75.63,0-137.23,61.42-137.41,137.06v1.14a137.47,137.47,0,0,0,137.11,137.76Zm.34,10.05H855.8a147.44,147.44,0,0,1-147.14-147.81v-1.14c.17-81.22,66.32-147.13,147.48-147.13h1.45c81.34.17,147.36,66.47,147.18,147.83v1.11a147.46,147.46,0,0,1-147.49,147.14Z"/><path class="cls-4" d="M859.26,2687.39h0a5.15,5.15,0,0,1-3.57-1.48l-71.36-71.73a59.05,59.05,0,0,1,.17-83.25c9.81-9.81,22.2-14.42,34.94-13.19,14.44,1.45,28.51,10.34,40.17,25.36,11.71-15,25.8-23.81,40.3-25.19,12.74-1.18,25.08,3.55,34.84,13.33a59.06,59.06,0,0,1-.19,83.3l-71.71,71.4a5.2,5.2,0,0,1-3.56,1.45Z"/><path class="cls-4" d="M758.07,2248.43a21.59,21.59,0,1,1-21.56-21.62,21.58,21.58,0,0,1,21.56,21.62Z"/><path class="cls-4" d="M979.12,2248.43a21.59,21.59,0,1,1-21.6-21.62,21.59,21.59,0,0,1,21.6,21.62Z"/><path class="cls-1" d="M737,2245.89h0a9,9,0,0,1-8.74-9.42c1.09-21.95,4.93-79.84,16.86-137.08,21-100.81,56.1-151.89,104.31-151.89s82.5,51.15,101.67,152.06c10.85,57.26,13.65,115.1,14.32,137.06a9,9,0,1,1-18,.51c-2-83.42-22.46-271.54-98-271.54s-99.59,188.24-103.16,271.7a9,9,0,0,1-9.27,8.6Z"/><polygon class="cls-6" points="311.14 2470.67 267.58 2507.29 318.03 2586.58 361.54 2549.96 311.14 2470.67 311.14 2470.67"/><path class="cls-7" d="M313.66,2856.3,130,2567.59c2.54-4.61,7.35-9.32,13.62-14,23.26-17.31,67.21-34.34,94.21-46.15,3.15-1.38,6.07-2.66,8.72-3.91a95.94,95.94,0,0,0,10.58-5.51c20.06-12.77,27.91,7.17,27.91,7.17-10.08,47.44,53.94,53.21,52.14,81.49,0,0-.68,12.13-6.71,48.14s5.11,83.68,12.33,125.71c9.37,54.24-.82,77.76-11.61,88-8.58,8.07-17.55,7.8-17.55,7.8Z"/><path class="cls-8" d="M313.66,2856.3,130,2567.59c2.54-4.61,7.35-9.32,13.62-14L331.21,2848.5c-8.58,8.07-17.55,7.8-17.55,7.8Z"/><path class="cls-9" d="M327.67,2598.8s15.9-2.9,19.16,11.13-16.34,24.85-16.34,24.85-21.56,4.11-2.82-36Z"/><path class="cls-9" d="M268.67,2631.33a5.64,5.64,0,0,1,1.7-7.78c28.7-18.26,55.62-10.17,56.75-9.83a5.65,5.65,0,0,1-3.32,10.8c-1-.29-23.27-6.76-47.37,8.55a5.59,5.59,0,0,1-7.76-1.74Z"/><path class="cls-9" d="M344.21,2667.56a5.45,5.45,0,0,1-.81-3.92c1.51-9.46-8.76-27.79-15.59-37.19a5.64,5.64,0,0,1,9.11-6.64c2.08,2.82,20.37,28.47,17.62,45.62a5.63,5.63,0,0,1-10.33,2.13Z"/><path class="cls-9" d="M323.57,2559.69l-.14-.26a12,12,0,0,0-8-5.58c-2.49-.46-4.28.12-5.7,1.93-3.42,4.35-4.05,14.88,2.23,28.57a177.56,177.56,0,0,0,14.36,26.16c2.28-12.66,4.93-38.74-2.78-50.82Zm-9.79,53.91a198.32,198.32,0,0,1-12.86-24.13c-7.56-16.42-7.85-32.26-.75-41.25a17.45,17.45,0,0,1,17.62-6.33,24,24,0,0,1,15.87,10.85l.23.39c12.7,19.92,4.69,58.93,3.74,63.35l-8.07-1.77.21.22-8.79,8.48c-.21-.17-2.89-3-7.2-9.81Z"/><path class="cls-9" d="M330.52,2628.41l6.52-10.32c10.52,6.62,28.14,8.17,34.9,3,1.63-1.26,3.33-3.34,1.76-8.62-1.09-3.7-2.84-4.76-4.24-5.27-7-2.49-21,4.23-28.19,9.06l-6.84-10.15c2.42-1.64,24.09-15.79,39.16-10.38,4,1.45,9.34,4.92,11.81,13.26,3.65,12.27-2.26,18.91-6.08,21.85-12,9.11-35.37,6-48.8-2.48Z"/><path class="cls-8" d="M148.76,2597l-5.47-8.57c15.23,2.34,35.34.8,56.13-13.86,27.64-19.57,36-48.86,38.43-67.17,3.15-1.38,6.07-2.66,8.72-3.91-1.65,19.05-9.37,54.32-42.46,77.72-19.84,14-39.41,17-55.35,15.79Z"/><path class="cls-9" d="M310.33,2640.75a5.64,5.64,0,0,1,8.66-7.1l15.95,15.16a5.65,5.65,0,0,1,.17,8,5.57,5.57,0,0,1-7.95.19l-16-15.19-.85-1.06Z"/><path class="cls-9" d="M311.33,2665.43a5.57,5.57,0,0,1,.66-6.88,5.63,5.63,0,0,1,8-.2l15.95,15.15a5.69,5.69,0,0,1,.22,8,5.62,5.62,0,0,1-8,.19l-16-15.19-.86-1.09Z"/><path class="cls-9" d="M312.71,2689.9a5.64,5.64,0,0,1,8.63-7.13l16,15.22a5.63,5.63,0,0,1-7.77,8.16L313.59,2691l-.88-1.06Z"/><path class="cls-9" d="M315.88,2715.47a5.63,5.63,0,0,1,8.66-7.07l15.94,15.16a5.65,5.65,0,1,1-7.78,8.19l-15.94-15.21-.88-1.07Z"/><path class="cls-9" d="M321.52,2741.89a5.65,5.65,0,0,1,8.65-7.12L346.1,2750a5.62,5.62,0,1,1-7.77,8.11l-15.94-15.17-.87-1Z"/><path class="cls-3" d="M838.27,1956.63l-.24,2s-1.72,3.16-4.9,9.13c-22.63,41.8-121,220.12-243.19,388.19-17.63,24.2-35.73,48.18-54.18,71.53q-12.15,15.4-24.49,30.39c-35.72,43.3-65.71,69.87-99.9,92.23-3.63,2.37-7.29,4.69-11,7-7.09,4.37-14.42,8.62-22,12.82-3.6,2-7.3,4-11.05,6,0,0-55.06-57.9-80.67-114,0,0,7.17-11.66,18.67-30.67,2.28-3.69,4.7-7.73,7.28-11.95,7.78-12.83,16.87-28,26.75-44.42,44.37-74.05,104.12-175.75,126.41-223,16.32-34.51,35.71-72.81,57.42-110.51,4.14-7.23,8.32-14.33,12.62-21.45l1.5-2.49c29.52-48.71,62.55-95,97.16-129.14L555.7,1423.71l-4.94-29.18,174.06-61.45,9.94-3.49L776.21,1315s3.32,15.26,8.48,41.5c.6,3.18,1.26,6.51,1.93,10,23.07,119.24,74.7,417.25,51.65,590.18Z"/><path class="cls-2" d="M411.37,2550.08c-3.63,2.37-7.29,4.69-11,7l-67.42-89.27-6.2-8.23-21.45-28.36c2.28-3.69,4.7-7.73,7.28-11.95l21,27.8,6.22,8.18,71.61,94.82Z"/><path class="cls-2" d="M838.27,1956.63l-.24,2s-1.72,3.16-4.92,9.13c-39.47-7.39-69.78-27-71.61-28.14a5.85,5.85,0,1,1,6.42-9.78c.42.29,31.35,20.19,70.35,26.81Z"/><path class="cls-2" d="M679.93,1904.53c-.89.85-88.15,87.67-340.17,550.73-2.25,4.18-4.52,8.34-6.83,12.56l-6.2-8.23c2.29-4.18,4.56-8.38,6.81-12.51,233.84-429.35,323.51-532.14,337.87-547.26-20.52-75.93-83.41-464.88-86.1-481.6a4.69,4.69,0,1,1,9.25-1.5c.68,4.13,67.07,414.66,86.63,483.15a4.65,4.65,0,0,1-1.26,4.66Z"/><path class="cls-2" d="M589.94,2355.93c-25.36,34.85-51.73,69.26-78.67,101.92-4.83-71.27-18-306.66,11.87-416.47,3.56-13.12,7.74-24.42,12.62-33.45l1.5,9.54,52.68,338.46Z"/><path class="cls-3" d="M263.94,1201s-13.1,124.3,15.18,193.5,394.36,33.57,487.64-28.71c38.27-25.53-43.22-261.23-43.22-261.23L263.94,1201Z"/><path class="cls-2" d="M786.62,1366.47a106.36,106.36,0,0,1-16.2-4.18,109,109,0,0,1-24.09-11.66,125.33,125.33,0,0,1-21.48-17.53c-40.38-40.72-52.25-102.25-52.82-105.25a4.7,4.7,0,1,1,9.24-1.73c.15.73,12.52,64.73,53.49,103.47a114,114,0,0,0,16.71,13.19,99.81,99.81,0,0,0,23,11,98.74,98.74,0,0,0,10.24,2.73c.6,3.18,1.26,6.52,1.93,10Z"/><path class="cls-2" d="M560.76,1401.24a4.63,4.63,0,0,1-4.44,4.74h0a4.63,4.63,0,0,1-4.92-4.31c-.82-17-1.81-34.4-2.91-51.78-.19-3.07-.37-6.11-.6-9.15-3.69-56.83-8.38-112.58-11.93-152-.29-3.19-.56-6.27-.86-9.25-.77-8.64-1.5-16.29-2.1-22.79,3.14-.47,6.23-1,9.31-1.5.61,6.49,1.34,14.22,2.11,23,.3,3,.57,6.06.87,9.23,3.49,39,8.16,94.32,11.85,150.78.2,3.11.4,6.25.62,9.35,1.14,18,2.17,36.08,3,53.68Z"/><path class="cls-2" d="M574.14,1341.28a118.48,118.48,0,0,1-16.42,6.28,94.35,94.35,0,0,1-9.27,2.34,66,66,0,0,1-8.92,1.17c-5.68.29-11.16-.29-15.75-2.48-5.71-2.73-9.42-7.7-10.7-14.34-3.41-17.53-10.59-89.88-15.41-141.06-.31-3.17-.59-6.23-.87-9.22-.77-8.18-1.43-15.63-2-21.93,3.09-.4,6.24-.77,9.35-1.19.59,6.38,1.27,13.9,2.06,22.21.28,3,.57,6,.86,9.19,4.83,51,12,123.31,15.29,140.3.76,3.91,2.57,6.42,5.67,7.9,5,2.39,12.43,1.89,19.86.3,3.17-.71,6.3-1.61,9.25-2.54a115.58,115.58,0,0,0,12.89-5,4.78,4.78,0,0,1,6.3,2,4.52,4.52,0,0,1-2.15,6.09Z"/><polygon class="cls-6" points="417.14 2636.01 426.41 2709.75 520.4 2709.75 525.86 2632.15 417.14 2636.01 417.14 2636.01"/><path class="cls-3" d="M535.76,1359.07v1264.8l-1.34,20H394.89c-1.48-9.13-4.83-23.88-9.28-42.87-.94-4.13-2-8.5-3.05-13-18.16-77.33-49.31-209.23-54.81-323.87-7.83-163.7-5.62-375.88-5.62-375.88-15.95-121.65-40.94-385.22-53.37-520.1-.31-3.23-.58-6.33-.84-9.4-4.19-45.31-6.75-73.84-6.75-73.84,22.46-9.37,63.19-2.92,106.55,9.37,3.11.88,6.27,1.76,9.42,2.73,77,23.08,158.62,62,158.62,62Z"/><path class="cls-2" d="M535.76,2588.05v13H385.61c-.94-4.13-2-8.5-3.05-13Z"/><path class="cls-2" d="M535.76,1916.75v12.06c-16.33,4.15-35,5.48-52.51,5.48a422.43,422.43,0,0,1-62.54-4.93,5.84,5.84,0,0,1,1.92-11.52c.71.12,69,11.21,113.13-1.09Z"/><path class="cls-2" d="M409,2601h-9.58c-.72-4.05-1.55-8.4-2.44-13-12.33-65.5-34.9-188-46.6-267.48-16.37-111-8.71-418.72-8.38-430.75-12.43-105.85-37.68-468.37-37.94-472a4.7,4.7,0,1,1,9.37-.63c.25,3.67,25.56,366.72,37.94,471.93v.67c-.08,3.17-8.18,317.6,8.3,429.44,11.79,80.09,34.62,203.84,46.88,268.86.85,4.64,1.69,9,2.44,13Z"/><path class="cls-7" d="M556.14,2835.34l0,2.46c-.07,3.79-.25,7.15-.4,10-.37,6.4-.86,10.31-.86,10.31H343.14a118.11,118.11,0,0,1-.23-20.36c1.37-21.64,8.56-55.79,37.82-78.35,40-31,24.54-24.51,32.77-38.61.93-1.6,8.12-25.58,8.89-27.2,6.88-14.66,13.21-21.57,51.18-21.57,50.28,0,54.71,24.42,60.1,37.27,2.21,5.31,5.24,16.52,8.36,29.87,1.28,5.37,2.54,11.07,3.78,16.91,3.11,14.56,6,29.8,8,42a215.94,215.94,0,0,1,2.36,37.24Z"/><path class="cls-8" d="M556.14,2835.34l0,2.46c-.07,3.79-.25,7.15-.4,10a59.26,59.26,0,0,1-22-28.52c-13.1-35.7,7.06-78.5,7.88-80.31l.43.19c1.28,5.37,2.54,11.07,3.78,16.91-4.77,14.56-10.26,39.05-2.61,59.78a49.11,49.11,0,0,0,12.94,19.44Z"/><path class="cls-8" d="M556.12,2837.8c-.28,12.08-1.26,20.36-1.26,20.36H343.14a118.11,118.11,0,0,1-.23-20.36Z"/><path class="cls-9" d="M412,2644.23c-1.19,0-2.66.5-4.56,2.22-3.11,2.87-3.22,5.17-2.94,6.88,1.57,9.69,19.53,22.41,35.89,31.45-7.45-18.43-18.27-38-27-40.34l-1.37-.21Zm39.31,58.83-2.51-.53c-5.34-2.44-52.55-24.37-56.22-47.32-.72-4.56-.17-11.32,6.72-17.63,6.52-6,12.91-6,17.17-4.83,21.36,5.66,37.57,53,40.59,62.41a6.07,6.07,0,0,1-1.75,6.35,5.93,5.93,0,0,1-4,1.55Z"/><path class="cls-9" d="M500.85,2644.23l-1.35.21c-8.76,2.3-19.57,21.91-27,40.34,16.37-9.06,34.34-21.79,35.9-31.45.25-1.71.18-4-3-6.88-1.87-1.72-3.36-2.22-4.55-2.22Zm-39.3,58.83a6.05,6.05,0,0,1-5.73-7.9c3-9.42,19.22-56.75,40.57-62.41,4.25-1.13,10.66-1.18,17.17,4.83,6.87,6.31,7.48,13.07,6.72,17.63-3.67,22.95-50.85,44.88-56.24,47.32l-2.49.53Z"/><path class="cls-9" d="M456.23,2685.4s-9.88-4.66-10.63,8.87c-.59,10.94,7.21,13.31,10.37,11.47,0,0,6.72,2,10.07-3.38s1.14-22.37-9.81-17Z"/><path class="cls-9" d="M413,2722.33a6,6,0,0,1-4.86-9.61c19.06-25.58,48.38-20,49.62-19.78a6,6,0,1,1-2.35,11.83c-1-.17-23.2-4.15-37.58,15.12a6,6,0,0,1-4.83,2.44Z"/><path class="cls-9" d="M505.41,2728.44a6,6,0,0,1-5.47-3.57c-9.78-21.5-43.93-26.71-44.28-26.74a6.06,6.06,0,0,1,1.74-12c1.68.26,41,6.3,53.53,33.76a6,6,0,0,1-3,8l-2.51.55Z"/><path class="cls-9" d="M480.54,2738.06l-1.51-.2c-26.94-7-48.86-1.06-49.09-1a6,6,0,0,1-3.23-11.64c1-.27,25.3-6.83,55.33.94a6,6,0,0,1-1.5,11.89Z"/><path class="cls-9" d="M471.49,2757.16,470,2757a106.81,106.81,0,0,0-49.09-1.06,6,6,0,1,1-3.2-11.59c1-.29,25.32-6.81,55.33.94a6.05,6.05,0,0,1,4.33,7.37,6,6,0,0,1-5.83,4.49Z"/><path class="cls-9" d="M460.83,2778.92l-1.5-.19a106,106,0,0,0-49.09-1A6,6,0,0,1,407,2766.1c1-.29,25.3-6.82,55.34.94a6,6,0,0,1-1.53,11.88Z"/><path class="cls-2" d="M403.08,1227.85a244.48,244.48,0,0,1-25.94,69.21c-11.26,19.83-27,39.8-48.35,53.57a109.81,109.81,0,0,1-60,17.57c-.3-3.23-.57-6.33-.83-9.4a101.39,101.39,0,0,0,55.76-16c19.14-12.33,33.48-30.3,44-48.44a241.55,241.55,0,0,0,26.17-68.21,4.69,4.69,0,1,1,9.22,1.73Z"/><path class="cls-7" d="M1028.81,785.82c.36,22.17-24.41,52.37-59.55,83.17-2.37,2.08-4.82,4.17-7.27,6.27-39.06,33-88.83,66.18-131.21,90.39-41.26,23.52-98.73,50.1-153.06,57.17-51.38,6.65-100-4.12-129.58-51.35a170.16,170.16,0,0,1-9.36-17.11C490.66,853.52,519,683.14,519,683.14l122-216.85c86.55,77.84,64.35,279.36,96,302.6l1.66,1.11a30.76,30.76,0,0,0,13.93,4.21c34.73,2.83,95.93-33.3,157.42-49.47q5-1.31,9.94-2.44c3.15-.7,6.25-1.33,9.39-1.92,54.86-10.13,98.62,18,99.42,65.44"/><path class="cls-8" d="M969.26,869c-2.37,2.08-4.82,4.17-7.27,6.27-25.83-24.07-42.47-57-49-97.76a266.65,266.65,0,0,1-2.89-52.76q5-1.31,9.94-2.44a256.31,256.31,0,0,0,2.64,53.93c6.32,39.3,22,70.33,46.62,92.76Z"/><path class="cls-8" d="M752.64,774.21c-22.44,15-53.18,38.74-67.47,63.8a4.87,4.87,0,0,1-4.25,2.45l-2.42-.63a4.88,4.88,0,0,1-1.79-6.66c10.83-19,30-37,48.49-51.32a290.13,290.13,0,0,0-41.09,11.6l-1.73.3a4.87,4.87,0,0,1-1.69-9.43c1.32-.5,31.6-11.76,58-14.32a30.76,30.76,0,0,0,13.93,4.21Z"/><path class="cls-8" d="M677.7,1022.8c-51.36,6.67-100-4.11-129.56-51.33a168,168,0,0,1-9.36-17.12c17.76-6,53.69-11.64,99.07,15.16,29.4,17.39,38.59,37,39.85,53.29Z"/><path class="cls-6" d="M1124.36,625.63s-44.08,151.68-124.13,170l-37.1-46.61s77.11-115.65,161.23-123.44Z"/><path class="cls-10" d="M961.17,786.78l6.15,3.52a8.61,8.61,0,0,0,10-1c25.64-22.93,150.17-134.39,171.4-156.47a8.65,8.65,0,0,0,2.17-7.73l-19.36-91.58a8.68,8.68,0,0,0-3.66-5.41l-8.52-5.64,19.83,98.74-178,165.61Z"/><path class="cls-1" d="M960.61,785.43l-22-90.62c-.85-3.54,1.54-9.3,5.33-12.83L1112.65,524.8c3.81-3.55,7.57-3.55,8.45,0l22,90.63c.87,3.55-1.52,9.29-5.35,12.83L969.08,785.44c-3.81,3.54-7.61,3.54-8.47,0Z"/><path class="cls-10" d="M990.8,742.17l-16-65.89c-.87-3.55,1.52-9.31,5.3-12.85l125.13-116.56c3.8-3.54,7.59-3.54,8.46,0l16,65.91c.87,3.55-1.53,9.29-5.34,12.85L999.23,742.17c-3.79,3.57-7.56,3.57-8.43,0Z"/><path class="cls-10" d="M968.29,734.87c-5.86,5.46-11.71,5.46-13,0s2.36-14.35,8.2-19.82,11.72-5.47,13.06,0-2.36,14.35-8.24,19.82Z"/><path class="cls-6" d="M974.56,656s-15.22-34.72,7.16-51.8,68.77-21.51,68.77-21.51c18,14.2-12.41,30.58-50.79,47.3l-25.14,26Z"/><path class="cls-6" d="M1049.08,724.8s23.47,10.61,31.2-2.68-6.25-46.75-12-58.15-11.78,17.57-8.94,30.6c1.65,7.69,1,19.95,1,19.95l-11.35,10.28Z"/><path class="cls-6" d="M1080.67,691.93s24.73,10.2,33.86-5.55-7.4-55.5-14.17-69-15.07,21.13-10.62,36.33-.79,22-.79,22l-8.28,16.28Z"/><path class="cls-6" d="M1097.86,675.64s21.85,9,29.93-4.92-6.54-49-12.5-61-13.32,18.67-9.38,32.11-.73,19.41-.73,19.41l-7.32,14.37Z"/><path class="cls-6" d="M1063.63,716.07s24.69,10.2,33.85-5.57-7.39-55.48-14.18-69-15.06,21.13-10.64,36.32-.76,22-.76,22l-8.27,16.28Z"/><path class="cls-9" d="M257.74,1309.87l-11.62,70.87s134.08,30,218.61,8.31,288.38-42,323.2-43.43l-22.33-94.31s-261.54,82.41-507.86,58.56Z"/><path class="cls-8" d="M544.28,421.6s49.79-101.21-56-157.36c-74-39.29-216.85-46.5-260.45,43.45-40.55,83.64,50.63,154,50.63,154S473.8,503.43,544.28,421.6Z"/><path class="cls-1" d="M372.08,304.44s-91.41,12.46-58.29,61.22c17.55,25.8,116.62,39.89,116.62,39.89s19.42-89.39-58.33-101.11Z"/><path class="cls-7" d="M755,1226.43s-338.71,113.75-484.65,57c0,0-45.75-14.24-64.13-103.85-.59-2.94-1.16-5.94-1.69-9-7.75-44.32-8.91-105.69,4-190.33,15.45-101.53-5.9-153.38-15.07-254.48-.33-3.56-.66-7.19-.94-10.87-1-10.95-1.9-22.45-2.8-34.69C179.84,546.64,137.37,489.6,203.84,450s153.75-70,153.75-70,74.18,23.55,126.5,0c0,0,79.56,39,140.74,61.27s41,183.94,60.34,276.75,51.94,166.66,81.45,320.64c27,140.82-11.61,187.82-11.61,187.82"/><path class="cls-8" d="M762.94,1024.86a4.88,4.88,0,0,1-4.85-4.53c-2.83-38.83-32.34-137.39-50-196.28-3.42-11.44-6.39-21.34-8.53-28.69-12.8-44.13-27.32-147.82-27.94-152.22a4.88,4.88,0,0,1,9.66-1.34c.15,1.07,15.05,107.4,27.64,150.84,2.13,7.32,5.09,17.19,8.52,28.62,17.76,59.27,47.48,158.46,50.38,198.37a4.84,4.84,0,0,1-4.48,5.21l-.39,0Z"/><path class="cls-8" d="M772.09,1179.43s14.45,44.33-6,74.11c0,0-304.27,105.6-508.4,56.33,0,0-18.37-22.13-23.51-67.56,0,0,245.47,61,537.86-62.88Z"/><path class="cls-8" d="M457.3,522.25c56.43,0,74.1-50.55,74.26-51.08a3.69,3.69,0,1,0-7-2.36c-.66,2-17.41,49.33-72.9,45.87C394,511.07,319.92,473,319.2,472.6a3.69,3.69,0,1,0-3.4,6.55c3.08,1.61,76.17,39.2,135.39,42.89,2.07.15,4.13.21,6.11.21Z"/><path class="cls-8" d="M660.14,960.4s39.14,119.78,24.8,186.27c0,0-128.77,76.74-320.68,38.18,0,0-10.74-118.4-18.29-194.53,0,0,195.95-31.77,314.17-29.92Z"/><path class="cls-9" d="M435.26,1052.47a2.74,2.74,0,0,0,2.77-2.65c11.82-255.77-59.7-639.43-60.44-643.28a2.77,2.77,0,0,0-5.45,1c.73,3.84,72.14,386.86,60.37,642a2.77,2.77,0,0,0,2.65,2.89h.1"/><path class="cls-9" d="M606.16,1035.23h.07a2.76,2.76,0,0,0,2.71-2.86c-9.3-308.87-114.18-624-115.25-627.18a2.76,2.76,0,1,0-5.23,1.77c1.05,3.14,105.67,317.55,115,625.58a2.75,2.75,0,0,0,2.74,2.69"/><path class="cls-1" d="M590.8,425.27s20,192.43-55.16,323.86c-100.38,175.64-327.15,231-327.15,231s-11.35-28.86.62-70.78c0,0,209.8-39,297.68-214.51,71.46-142.75,37.51-285.29,37.51-285.29s30.85,0,46.5,15.69"/><path class="cls-1" d="M416.18,908c1.28-.07,2.61-.17,3.92-.25A161.64,161.64,0,0,0,439.37,905c3.44-.68,6.85-1.49,10.22-2.4,5.1-1.34,10.13-2.93,15.14-4.79,3.57-1.25,7.11-2.7,10.61-4.24,49-21.36,89.81-64.07,109.25-113.86,1.43-3.6,2.73-7.21,3.9-10.91a173,173,0,0,0,5.16-19.9c.66-3.37,1.21-6.75,1.69-10.16a164.31,164.31,0,0,0,1.43-18.27c0-1.31,0-2.63,0-3.94-.27-62.45-90.27-99.77-90.27-99.77l-24.1,42.18-5.52,9.67-43,75.21-71.22,46.4-9.19,6-42.19,27.51s42.48,87.66,104.84,84.3"/><path class="cls-11" d="M439.37,905c-17.17-45.22-56.87-84.6-85.84-108.81l9.19-6c30,25.23,69.6,65.41,86.87,112.38-3.37.91-6.78,1.72-10.22,2.4h0"/><path class="cls-11" d="M593.65,748.86c-25.58-3.57-52.51-17.61-80-41.91a346.15,346.15,0,0,1-36.76-38.38l5.52-9.67c24.48,30.2,66.89,73.44,112.9,79.8-.48,3.41-1,6.79-1.69,10.16h0"/><path class="cls-10" d="M506.54,616.72s71.88,37.69,30.57,100.44-112.8,139.78-156.65,144.3-69.55-37.35-69.55-37.35L506.54,616.72Z"/><path class="cls-11" d="M464.73,897.77c.12-24.45,6.47-56.94,32-86,27.29-31.08,64.25-40.64,91.74-43-1.17,3.7-2.47,7.31-3.9,10.91h0c-25,2.9-56.75,12.28-80.12,38.85-21.84,24.83-28.25,52.88-29.13,75h0c-3.5,1.54-7,3-10.61,4.24"/><path class="cls-6" d="M481,365.5,474,397.71c-4.45,2.22-9.19,3.21-13.15,5.48C392.7,442,340.14,386.84,341.07,383.4L370.83,258l97.05,94.66L481,365.5Z"/><path class="cls-1" d="M481.24,364.57,474,397.71a103.06,103.06,0,0,1-13.15,5.48c-43.49-29.29-67.19-86.87-67.19-86.87l74.25,36.36,13.36,11.89Z"/><path class="cls-1" d="M352.83,134.69s-33.89-25.93-17.34-57,49.35-21.32,49.35-21.32.53-34.12,29-43.91,45.91,17,45.91,17,13-32.78,41.87-29.14S529.64,31.8,529.64,31.8s27.72-23.89,57.78-4.68,7.4,46.49,7.4,46.49,26.72,7.61,16.62,35.63c-5.33,14.69-28.69,21.93-28.69,21.93l-229.92,3.52Z"/><path class="cls-1" d="M368.41,125.18s-22.94-3.25-33.57,23.12c-11,27.26,7.57,41.37,7.57,41.37S323.3,205.8,332,227.78s30.43,14.44,30.43,14.44-24.4,21.69-6.92,40.82,50.06-22.57,50.06-22.57l-37.2-135.29Z"/><path class="cls-1" d="M555.87,102s76,27.55,24.79,75.36c0,0-31.24-54.47-24.79-75.36Z"/><path class="cls-1" d="M559.6,157s25.17-3.38,32.44,16.56-12.4,30.57-12.4,30.57,12.45,13,3.3,34.82-24.37,17.32-24.37,17.32,14.64,14.11-3.21,32.91-40.29-15.5-40.29-15.5L559.6,157"/><path class="cls-12" d="M548.05,230.59s23-17.58,28.62,6.31-11.95,65.87-38.22,52.6l9.6-58.91"/><path class="cls-6" d="M555.49,311.67S541,378.28,471.76,362.92C402.92,347.69,367.9,283.35,366,280.31l-.06-.08,2.32-14.17,12-73.49,6.44-39.29s6.55-71.82,75.79-70c50.56,1.34,94.34,19.38,111.74,49.74a61.2,61.2,0,0,1,7.5,38.43l-13.14,70.2-3.25,17.2-9.88,52.82"/><path class="cls-1" d="M492.18,307.55a20.11,20.11,0,0,0,9-.53,1.93,1.93,0,0,0-1.29-3.63c-.27.09-6.59,2.17-15-2.26a1.94,1.94,0,0,0-1.81,3.43,28.66,28.66,0,0,0,9.12,3Z"/><path class="cls-9" d="M531.81,266.33s-36-.52-64.87-15.62c0,0-.44,42.39,34.29,41.74,25.53-.48,30.58-26.12,30.58-26.12Z"/><path class="cls-1" d="M511.09,248.49a97.63,97.63,0,0,1-16.46-8.72,2.86,2.86,0,0,1-.86-4,2.91,2.91,0,0,1,4-.89c9.85,6.37,21.07,11.07,23.08,9.71l0-.72c-.74-25-12.39-30.28-12.53-30.34a2.9,2.9,0,0,1-1.7-3.32l5.06-22a2.89,2.89,0,0,1,3.44-2.17,3,3,0,0,1,2.2,3.48l-4.58,20c4.29,2.91,13.23,11.69,13.9,34.26.11,3.66-1.83,5.29-3,5.95-2.92,1.66-7.66.73-12.61-1.17Z"/><path class="cls-1" d="M492.44,177.11c14.94-3.24,12.94-25.55-2.29-26.6-13.3-.92-30,.46-39.1,11-16.63,19.28,24.87,18.78,40.9,15.7l.49-.1Z"/><path class="cls-1" d="M530.71,188.76c-11.53-8.21-1.7-26.48,11.67-21.81,11.61,4.07,25.34,11.33,29.23,23.62,7.14,22.48-28,6.91-40.51-1.54l-.39-.27Z"/><path class="cls-1" d="M393.23,216.43c-1.54-10.87-8.12-23.55-26.82-32.12-2.25-6.1-5.67-15.09-3.9-29.89,1.68-14.43-.11-28.79,8.61-44,0,0,22.16-28.93,91.4-27.09,50.56,1.33,94.34,19.39,111.74,49.76a15.9,15.9,0,0,1-4.36,5.29c-17.4,14.94-43.68,5.88-71.18-9.71s-56.32-2-56.32-2c3.37,2.23,5.53,6.22,5.33,12.88a32.93,32.93,0,0,1-3.84,13.76c-2.79,5.31-7.33,11.95-12.3,10.86,0,0,7.09,16.58-2.79,26.12s-14.23,9.23-14.23,9.23,6.87,14-2,23.56c-6.33,6.81-19.36-6.58-19.36-6.58Z"/><path class="cls-13" d="M463.24,235.54a51.77,51.77,0,0,1-11.07-1.26c-12.34-2.71-21.43-8.83-20.41-13.67.75-3.31,6-5.17,13.16-5.17A51.32,51.32,0,0,1,456,216.73c12.32,2.7,21.45,8.82,20.35,13.67-.69,3.28-5.94,5.14-13.12,5.14"/><path class="cls-13" d="M565.37,258.85a49.77,49.77,0,0,1-5.41-.92c-12.32-2.69-21.42-8.81-20.37-13.67.72-3.29,6-5.17,13.14-5.17a54,54,0,0,1,11.08,1.27c1.65.38,3.27.81,4.81,1.29l-3.25,17.2"/><path class="cls-1" d="M393.63,258c-.5.67-13.7,19.08-27.62,22.27l-.06-.08,2.33-14.17s11.36.54,25.35-8Z"/><path class="cls-6" d="M391.56,209.12s-18.77-41.6-44.41-17.77c-21.19,19.62-4,86.64,32.31,73l12.1-55.18Z"/><path class="cls-9" d="M355,247a6.29,6.29,0,1,0,7.5-4.78A6.3,6.3,0,0,0,355,247Z"/><path class="cls-1" d="M378.18,252.73l.29.05a2.82,2.82,0,0,0,3.1-2.49c3.37-31.14-19.92-47.3-20.91-48A2.81,2.81,0,0,0,357.5,207c.88.59,21.49,15,18.51,42.74a2.79,2.79,0,0,0,2.17,3Z"/><path class="cls-1" d="M356.25,230.52l1.91-.25c2.76-1.4,11-4.56,15.51-2.31a2.8,2.8,0,0,0,2.51-5c-7.77-3.93-19.29,1.67-20.58,2.31a2.8,2.8,0,0,0-1.23,3.78l1.88,1.48Z"/><path class="cls-1" d="M481.39,202.52c-1.26,6.89-5.41,11.89-9.26,11.19s-6-6.87-4.7-13.75,5.41-11.91,9.28-11.2,5.94,6.86,4.68,13.76Z"/><path class="cls-1" d="M549.57,215c-1.28,6.89-5.43,11.89-9.29,11.19s-5.95-6.88-4.68-13.75,5.41-11.91,9.25-11.19,5.95,6.85,4.72,13.75Z"/><path class="cls-8" d="M318.42,370.54s97.68,42.92,116.84,42.72c0,0-24.92,23.31-64.34,27.17-51.71,5.09-138.9-6.15-138.9-6.15s25.64-53.13,86.4-63.74Z"/><path class="cls-8" d="M481.24,363.09s0,40.1-46,50.17c0,0,8.69,29.94,47.91,24.41s61.11-28.09,61.11-28.09-32.09-46.49-63-46.49Z"/><path class="cls-7" d="M361.41,1174.69S205.88,1201.21,98.88,1138C38.14,1102.14-7,1037.36.9,922.36c.09-1.74.24-3.49.38-5.24,25.2-310.39,185.39-450.83,185.39-450.83,60-15.58,126.72.42,34.2,395.53-27.18,160.28,127.41,173.41,127.41,173.41l13.13,139.46Z"/><path class="cls-8" d="M217.71,898.43l-1.51-.25a4.89,4.89,0,0,1-3.14-6.13c.61-1.92,62.36-193,63.41-294a4.9,4.9,0,0,1,4.94-4.83,4.84,4.84,0,0,1,4.8,4.92c-1.06,102.48-63.24,295-63.88,297a4.84,4.84,0,0,1-4.62,3.36Z"/><path class="cls-8" d="M273.46,678.35l-2.56-.72a4.89,4.89,0,0,1-1.59-6.72l28.46-46.17a4.88,4.88,0,0,1,8.32,5.12L277.6,676a4.86,4.86,0,0,1-4.14,2.32Z"/><path class="cls-8" d="M328.45,1185.09a4.85,4.85,0,0,1-4.49-3c-17.88-41.89-13.83-160.21-13.63-165.22a4.87,4.87,0,1,1,9.73.36c0,1.21-4.18,121.15,12.85,161a4.85,4.85,0,0,1-2.57,6.39l-1.89.4Z"/><path class="cls-8" d="M362.83,1179.35c-2,.61-34.46,10.41-79.64,10.41a285.73,285.73,0,0,1-77-10.22c-.59-2.94-1.16-5.94-1.69-9a5,5,0,0,1,3.81-.51c78.31,22.08,150.88.27,151.61,0a4.87,4.87,0,0,1,6.08,3.24,4.82,4.82,0,0,1-3.21,6.09Z"/><path class="cls-8" d="M317.43,1022c-2,0-4.05-.06-6.16-.2-20.9-1.34-51.25-10.5-77.23-46.49a4.86,4.86,0,1,1,7.88-5.7c45.35,62.77,104.59,37.59,105.18,37.33a4.87,4.87,0,0,1,3.93,8.92c-.62.26-14.16,6.14-33.6,6.14Z"/><path class="cls-8" d="M98.88,1138C38.14,1102.14-7,1037.36.9,922.36c42.74,47.3,111.5,137.44,98,215.66Z"/></g></g></svg>