<svg xmlns="http://www.w3.org/2000/svg" xmlns:xlink="http://www.w3.org/1999/xlink" viewBox="0 0 817.75 795.38"><defs><style>.cls-1,.cls-9{opacity:0.1;}.cls-12,.cls-2,.cls-9{fill:#334752;}.cls-3{fill:#e6e4eb;}.cls-4{fill:#314584;}.cls-5{fill:#5767c7;}.cls-6{fill:#c7e6ff;}.cls-7{fill:#5768c8;}.cls-8{fill:#334787;}.cls-10{fill:#c3d0d8;}.cls-11{fill:#edf2f6;}.cls-12{opacity:0.2;}.cls-13{fill:url(#New_Gradient_Swatch_2);}.cls-14{fill:url(#New_Gradient_Swatch_2-2);}.cls-15{fill:url(#New_Gradient_Swatch_2-3);}.cls-16{fill:url(#New_Gradient_Swatch_2-4);}.cls-17{fill:url(#New_Gradient_Swatch_2-5);}.cls-18{fill:url(#New_Gradient_Swatch_2-6);}.cls-19{fill:url(#New_Gradient_Swatch_4);}.cls-20{fill:#ffe600;}.cls-21{fill:url(#New_Gradient_Swatch_3);}.cls-22{fill:url(#linear-gradient);}.cls-23{fill:url(#linear-gradient-2);}.cls-24{fill:#2c4755;}.cls-25{fill:url(#linear-gradient-3);}.cls-26{fill:url(#linear-gradient-4);}.cls-27{fill:url(#New_Gradient_Swatch_3-2);}.cls-28{fill:url(#New_Gradient_Swatch_3-3);}.cls-29{fill:url(#New_Gradient_Swatch_4-2);}.cls-30{fill:url(#New_Gradient_Swatch_3-4);}.cls-31{fill:url(#linear-gradient-5);}.cls-32{fill:url(#linear-gradient-6);}.cls-33{fill:url(#linear-gradient-7);}.cls-34{fill:url(#New_Gradient_Swatch_8);}.cls-35{fill:url(#linear-gradient-8);}.cls-36{fill:#6a6d89;}.cls-37{fill:url(#New_Gradient_Swatch_4-3);}.cls-38{fill:url(#New_Gradient_Swatch_4-4);}.cls-39{fill:url(#New_Gradient_Swatch_3-5);}.cls-40{fill:url(#New_Gradient_Swatch_3-6);}.cls-41{fill:url(#New_Gradient_Swatch_8-2);}.cls-42{fill:url(#New_Gradient_Swatch_8-3);}.cls-43{fill:url(#New_Gradient_Swatch_3-7);}.cls-44{fill:url(#New_Gradient_Swatch_3-8);}.cls-45{fill:#fff;}.cls-46{fill:url(#linear-gradient-9);}.cls-47{fill:url(#New_Gradient_Swatch_2-7);}.cls-48{fill:url(#linear-gradient-10);}.cls-49{fill:#131316;}.cls-50{fill:url(#New_Gradient_Swatch_4-5);}.cls-51{fill:url(#linear-gradient-11);}.cls-52{fill:url(#linear-gradient-12);}.cls-53{fill:url(#linear-gradient-13);}.cls-54{fill:url(#New_Gradient_Swatch_4-6);}.cls-55{fill:url(#New_Gradient_Swatch_2-8);}.cls-56{fill:url(#linear-gradient-14);}.cls-57{fill:url(#New_Gradient_Swatch_2-9);}.cls-58{fill:url(#linear-gradient-15);}.cls-59{fill:url(#linear-gradient-16);}.cls-60{fill:url(#linear-gradient-17);}.cls-61{fill:url(#linear-gradient-18);}.cls-62{fill:url(#linear-gradient-19);}.cls-63{fill:url(#linear-gradient-20);}.cls-64{fill:url(#linear-gradient-21);}.cls-65{fill:url(#linear-gradient-22);}.cls-66{fill:url(#linear-gradient-23);}.cls-67{fill:#6a3c20;}.cls-68{fill:url(#linear-gradient-24);}.cls-69{fill:url(#linear-gradient-25);}.cls-70{fill:url(#New_Gradient_Swatch_1);}.cls-71{fill:url(#New_Gradient_Swatch_1-2);}.cls-72{fill:url(#New_Gradient_Swatch_2-10);}.cls-73{fill:url(#New_Gradient_Swatch_2-11);}.cls-74{fill:url(#New_Gradient_Swatch_4-7);}.cls-75{fill:url(#New_Gradient_Swatch_4-8);}.cls-76{fill:url(#linear-gradient-26);}.cls-77{fill:url(#linear-gradient-27);}.cls-78{fill:url(#linear-gradient-28);}.cls-79{fill:url(#New_Gradient_Swatch_2-12);}.cls-80{fill:url(#New_Gradient_Swatch_2-13);}.cls-81{fill:url(#linear-gradient-29);}.cls-82{fill:url(#New_Gradient_Swatch_5);}.cls-83{fill:url(#New_Gradient_Swatch_5-2);}</style><linearGradient id="New_Gradient_Swatch_2" x1="163.63" y1="384.71" x2="174.04" y2="435.18" gradientUnits="userSpaceOnUse"><stop offset="0" stop-color="#aff57a"/><stop offset="1" stop-color="#54d169"/></linearGradient><linearGradient id="New_Gradient_Swatch_2-2" x1="165.66" y1="369.33" x2="179.67" y2="420.69" xlink:href="#New_Gradient_Swatch_2"/><linearGradient id="New_Gradient_Swatch_2-3" x1="165.67" y1="404.41" x2="182.19" y2="451.29" xlink:href="#New_Gradient_Swatch_2"/><linearGradient id="New_Gradient_Swatch_2-4" x1="723.41" y1="494.62" x2="733.83" y2="545.09" xlink:href="#New_Gradient_Swatch_2"/><linearGradient id="New_Gradient_Swatch_2-5" x1="725.44" y1="479.24" x2="739.45" y2="530.61" xlink:href="#New_Gradient_Swatch_2"/><linearGradient id="New_Gradient_Swatch_2-6" x1="725.46" y1="514.32" x2="741.98" y2="561.19" xlink:href="#New_Gradient_Swatch_2"/><linearGradient id="New_Gradient_Swatch_4" x1="564.73" y1="597.12" x2="522.41" y2="690.22" gradientUnits="userSpaceOnUse"><stop offset="0" stop-color="#15eded"/><stop offset="1" stop-color="#029cf5"/></linearGradient><linearGradient id="New_Gradient_Swatch_3" x1="558.16" y1="639.29" x2="539.5" y2="680.65" gradientUnits="userSpaceOnUse"><stop offset="0" stop-color="#46eeaa"/><stop offset="1" stop-color="#2cbfc7"/></linearGradient><linearGradient id="linear-gradient" x1="82.71" y1="454.34" x2="67.08" y2="398.49" gradientUnits="userSpaceOnUse"><stop offset="0" stop-color="#f8a980"/><stop offset="1" stop-color="#ffdf75"/></linearGradient><linearGradient id="linear-gradient-2" x1="39.73" y1="602.17" x2="4.17" y2="489.74" xlink:href="#linear-gradient"/><linearGradient id="linear-gradient-3" x1="58.05" y1="607.74" x2="22.49" y2="495.31" xlink:href="#linear-gradient"/><linearGradient id="linear-gradient-4" x1="14.75" y1="436.57" x2="1.81" y2="437.15" xlink:href="#linear-gradient"/><linearGradient id="New_Gradient_Swatch_3-2" x1="-3.79" y1="408.84" x2="14.26" y2="408.3" xlink:href="#New_Gradient_Swatch_3"/><linearGradient id="New_Gradient_Swatch_3-3" x1="-3.3" y1="375.14" x2="61.36" y2="523.13" xlink:href="#New_Gradient_Swatch_3"/><linearGradient id="New_Gradient_Swatch_4-2" x1="71.14" y1="373.3" x2="69.39" y2="436.88" xlink:href="#New_Gradient_Swatch_4"/><linearGradient id="New_Gradient_Swatch_3-4" x1="41.27" y1="403.4" x2="76.15" y2="445.97" xlink:href="#New_Gradient_Swatch_3"/><linearGradient id="linear-gradient-5" x1="37.91" y1="388.34" x2="28.14" y2="366.38" xlink:href="#linear-gradient"/><linearGradient id="linear-gradient-6" x1="43.92" y1="380.82" x2="44.32" y2="328.82" xlink:href="#linear-gradient"/><linearGradient id="linear-gradient-7" x1="30.46" y1="335.7" x2="43.57" y2="371.89" gradientUnits="userSpaceOnUse"><stop offset="0" stop-color="#2c4755"/><stop offset="1" stop-color="#334752"/></linearGradient><linearGradient id="New_Gradient_Swatch_8" x1="17.71" y1="341.29" x2="38.72" y2="358.36" gradientUnits="userSpaceOnUse"><stop offset="0" stop-color="#ff7c6e"/><stop offset="1" stop-color="#f5317f"/></linearGradient><linearGradient id="linear-gradient-8" x1="19" y1="364.3" x2="24.39" y2="398.78" xlink:href="#linear-gradient-7"/><linearGradient id="New_Gradient_Swatch_4-3" x1="516.24" y1="127.93" x2="454.82" y2="290.65" xlink:href="#New_Gradient_Swatch_4"/><linearGradient id="New_Gradient_Swatch_4-4" x1="487.91" y1="178.06" x2="463.66" y2="291.75" xlink:href="#New_Gradient_Swatch_4"/><linearGradient id="New_Gradient_Swatch_3-5" x1="411.51" y1="333.94" x2="411.05" y2="439.49" xlink:href="#New_Gradient_Swatch_3"/><linearGradient id="New_Gradient_Swatch_3-6" x1="402.59" y1="386.76" x2="426.25" y2="495.49" xlink:href="#New_Gradient_Swatch_3"/><linearGradient id="New_Gradient_Swatch_8-2" x1="384.03" y1="245.04" x2="383.58" y2="350.59" xlink:href="#New_Gradient_Swatch_8"/><linearGradient id="New_Gradient_Swatch_8-3" x1="375.12" y1="297.86" x2="398.77" y2="406.59" xlink:href="#New_Gradient_Swatch_8"/><linearGradient id="New_Gradient_Swatch_3-7" x1="398.56" y1="-3.91" x2="339.88" y2="106.19" xlink:href="#New_Gradient_Swatch_3"/><linearGradient id="New_Gradient_Swatch_3-8" x1="342.13" y1="68.06" x2="326.96" y2="233.52" xlink:href="#New_Gradient_Swatch_3"/><linearGradient id="linear-gradient-9" x1="261.97" y1="351.51" x2="312.49" y2="340.61" xlink:href="#linear-gradient"/><linearGradient id="New_Gradient_Swatch_2-7" x1="263.84" y1="327.68" x2="289.41" y2="327.68" xlink:href="#New_Gradient_Swatch_2"/><linearGradient id="linear-gradient-10" x1="273.1" y1="533.86" x2="296.23" y2="533.86" gradientUnits="userSpaceOnUse"><stop offset="0" stop-color="#334752"/><stop offset="1" stop-color="#6a6d89"/></linearGradient><linearGradient id="New_Gradient_Swatch_4-5" x1="183.76" y1="500.08" x2="353.68" y2="432.28" xlink:href="#New_Gradient_Swatch_4"/><linearGradient id="linear-gradient-11" x1="313.73" y1="313.19" x2="303.89" y2="293.25" xlink:href="#linear-gradient"/><linearGradient id="linear-gradient-12" x1="302.85" y1="293.71" x2="331.56" y2="275.36" xlink:href="#linear-gradient"/><linearGradient id="linear-gradient-13" x1="329.52" y1="559.2" x2="327.83" y2="550.23" xlink:href="#linear-gradient-10"/><linearGradient id="New_Gradient_Swatch_4-6" x1="400.99" y1="577.72" x2="260.58" y2="393.04" xlink:href="#New_Gradient_Swatch_4"/><linearGradient id="New_Gradient_Swatch_2-8" x1="288.29" y1="287.49" x2="316.21" y2="399.17" xlink:href="#New_Gradient_Swatch_2"/><linearGradient id="linear-gradient-14" x1="342.53" y1="361.67" x2="412.74" y2="351.83" xlink:href="#linear-gradient"/><linearGradient id="New_Gradient_Swatch_2-9" x1="352.78" y1="370.17" x2="319.65" y2="314.75" xlink:href="#New_Gradient_Swatch_2"/><linearGradient id="linear-gradient-15" x1="1602.82" y1="731.37" x2="1659.8" y2="719.07" gradientTransform="matrix(-0.91, -0.41, -0.41, 0.91, 2277.71, 536.19)" xlink:href="#linear-gradient"/><linearGradient id="linear-gradient-16" x1="1604.93" y1="704.49" x2="1633.76" y2="704.49" gradientTransform="matrix(-0.91, -0.41, -0.41, 0.91, 2277.71, 536.19)" gradientUnits="userSpaceOnUse"><stop offset="0" stop-color="#edf2f6"/><stop offset="1" stop-color="#c3d0d8"/></linearGradient><linearGradient id="linear-gradient-17" x1="3725.62" y1="742.52" x2="3751.71" y2="742.52" gradientTransform="matrix(-1, 0, 0, 1, 4251.27, 0)" xlink:href="#linear-gradient-10"/><linearGradient id="linear-gradient-18" x1="3624.87" y1="704.43" x2="3816.49" y2="627.96" gradientTransform="matrix(-1, 0, 0, 1, 4251.27, 0)" gradientUnits="userSpaceOnUse"><stop offset="0" stop-color="#ffe600"/><stop offset="1" stop-color="#ffc400"/></linearGradient><linearGradient id="linear-gradient-19" x1="3771.44" y1="493.66" x2="3760.35" y2="471.17" gradientTransform="matrix(-1, 0, 0, 1, 4251.27, 0)" xlink:href="#linear-gradient"/><linearGradient id="linear-gradient-20" x1="3759.17" y1="471.69" x2="3791.56" y2="451" gradientTransform="matrix(-1, 0, 0, 1, 4251.27, 0)" xlink:href="#linear-gradient"/><linearGradient id="linear-gradient-21" x1="3789.25" y1="771.1" x2="3787.34" y2="760.98" gradientTransform="matrix(-1, 0, 0, 1, 4251.27, 0)" xlink:href="#linear-gradient-10"/><linearGradient id="linear-gradient-22" x1="464.3" y1="669.27" x2="509.6" y2="669.27" gradientTransform="matrix(1, 0, 0, 1, 0, 0)" xlink:href="#linear-gradient-18"/><linearGradient id="linear-gradient-23" x1="461.77" y1="501.05" x2="558.18" y2="616.1" gradientTransform="matrix(1, 0, 0, 1, 0, 0)" xlink:href="#linear-gradient-16"/><linearGradient id="linear-gradient-24" x1="7315.12" y1="-5089.79" x2="7411.39" y2="-5103.29" gradientTransform="matrix(-0.14, 0.99, 0.99, 0.14, 6535.54, -5984.69)" xlink:href="#linear-gradient"/><linearGradient id="linear-gradient-25" x1="448.55" y1="498.03" x2="495.54" y2="574.19" gradientTransform="matrix(1, 0, 0, 1, 0, 0)" xlink:href="#linear-gradient-16"/><linearGradient id="New_Gradient_Swatch_1" x1="331.56" y1="645.38" x2="323.36" y2="732.27" gradientUnits="userSpaceOnUse"><stop offset="0" stop-color="#ffdf40"/><stop offset="1" stop-color="#ff8359"/></linearGradient><linearGradient id="New_Gradient_Swatch_1-2" x1="327.96" y1="686.93" x2="316.77" y2="754.05" xlink:href="#New_Gradient_Swatch_1"/><linearGradient id="New_Gradient_Swatch_2-10" x1="342.05" y1="646.99" x2="338.69" y2="736.87" xlink:href="#New_Gradient_Swatch_2"/><linearGradient id="New_Gradient_Swatch_2-11" x1="362.48" y1="645.81" x2="302.32" y2="758.18" xlink:href="#New_Gradient_Swatch_2"/><linearGradient id="New_Gradient_Swatch_4-7" x1="345.6" y1="596.49" x2="331.19" y2="691.46" xlink:href="#New_Gradient_Swatch_4"/><linearGradient id="New_Gradient_Swatch_4-8" x1="348.84" y1="628.23" x2="305.09" y2="752.53" xlink:href="#New_Gradient_Swatch_4"/><linearGradient id="linear-gradient-26" x1="3366.46" y1="556.55" x2="3356.93" y2="613.7" gradientTransform="matrix(-1, 0, 0, 1, 3522.42, 0)" gradientUnits="userSpaceOnUse"><stop offset="0" stop-color="#edf2f6"/><stop offset="1" stop-color="#e6e4eb"/></linearGradient><linearGradient id="linear-gradient-27" x1="3372.64" y1="536.36" x2="3362.54" y2="594.62" xlink:href="#linear-gradient-26"/><linearGradient id="linear-gradient-28" x1="-69.47" y1="663.07" x2="-74.92" y2="695.76" gradientTransform="translate(118.56)" xlink:href="#linear-gradient-26"/><linearGradient id="New_Gradient_Swatch_2-12" x1="45.99" y1="634.42" x2="54.25" y2="680.94" xlink:href="#New_Gradient_Swatch_2"/><linearGradient id="New_Gradient_Swatch_2-13" x1="55.69" y1="631.02" x2="44.73" y2="700.88" xlink:href="#New_Gradient_Swatch_2"/><linearGradient id="linear-gradient-29" x1="111.94" y1="624.84" x2="107.32" y2="652.54" gradientTransform="translate(118.56)" xlink:href="#linear-gradient-26"/><linearGradient id="New_Gradient_Swatch_5" x1="227.88" y1="600.56" x2="234.88" y2="639.98" gradientUnits="userSpaceOnUse"><stop offset="0" stop-color="#59c2ff"/><stop offset="1" stop-color="#1270e3"/></linearGradient><linearGradient id="New_Gradient_Swatch_5-2" x1="236.09" y1="597.67" x2="226.81" y2="656.89" xlink:href="#New_Gradient_Swatch_5"/></defs><g id="Layer_2" data-name="Layer 2"><g id="Technology_Flat_Illustration" data-name="Technology Flat Illustration"><g class="cls-1"><path class="cls-2" d="M619.41,307.64c-16.48-9.44-43.18-9-59.34,1L338.73,445.37c-16.16,10-15.9,25.88.58,35.32L525.12,587.16c16.48,9.45,43.19,9,59.34-1L805.8,449.43c16.16-10,15.9-25.87-.58-35.32Z"/></g><path class="cls-3" d="M558.15,114.3,362.17,1.51A9,9,0,0,0,355.84.15c-4.41.61-10,4.11-16.51,7.51l-.06,0c-2.09,1.15-3.39,3.67-3.39,7.28v441.4c0,7.11,5,15.84,11.21,19.38l196,112.79A9.48,9.48,0,0,0,548.7,590c3-.1,6.84-1.35,11.65-3.73,4.11-2.2,6.09-3.89,7-5.06l.18-.22,0,0a9.14,9.14,0,0,0,1.77-5.9V133.68C569.36,126.57,564.32,117.84,558.15,114.3Z"/><path class="cls-4" d="M554.27,140.68c0-7.11-5-15.83-11.2-19.38L347.09,8.51C340.92,5,335.88,7.88,335.88,15v441.4c0,7.11,5,15.84,11.21,19.38l196,112.79c6.16,3.55,11.2.63,11.2-6.48Z"/><path class="cls-5" d="M429.13,495c-2.37-1.36-4.3-.24-4.3,2.49v9.06a9.5,9.5,0,0,0,4.3,7.44l23.18,13.34c2.37,1.37,4.31.25,4.31-2.49v-9.05a9.52,9.52,0,0,0-4.31-7.45Z"/><path class="cls-6" d="M346.82,40.69c-2.57-1.48-4.67-.26-4.67,2.7V430.25a10.33,10.33,0,0,0,4.67,8.08L542.23,550.78c2.57,1.48,4.67.27,4.67-2.7V161.22a10.33,10.33,0,0,0-4.67-8.07Z"/><path class="cls-7" d="M418.47,61.21c-1.75-1-3.18-.18-3.18,1.83v3.17a7,7,0,0,0,3.18,5.49l54.9,31.6c1.74,1,3.17.18,3.17-1.84V98.29a7.05,7.05,0,0,0-3.17-5.49Z"/><path class="cls-8" d="M556.78,322.12c0,2.58,1.79,3.59,4,2.23l1.71-1a9.37,9.37,0,0,0,4-7.16V297.74c0-2.58-1.79-3.59-4-2.23l-1.71,1a9.36,9.36,0,0,0-4,7.16Z"/><path class="cls-8" d="M434.32,46a8.06,8.06,0,0,0-7.46.11l-.36.22c-2,1.25-2,3.25.06,4.44l44,25.34a8.08,8.08,0,0,0,7.47-.11l.36-.22c2-1.26,2-3.25-.07-4.45Z"/><path class="cls-8" d="M556.78,264c0,2.58,1.79,3.59,4,2.24l1.71-1.05a9.34,9.34,0,0,0,4-7.15V184.3c0-2.58-1.79-3.58-4-2.23l-1.71,1.05a9.34,9.34,0,0,0-4,7.15Z"/><path class="cls-7" d="M353.8,36c2.29,3.52,6.09,5.11,8.49,3.55s2.49-5.68.2-9.2-6.08-5.11-8.48-3.54S351.52,32.52,353.8,36Z"/><path class="cls-7" d="M368,43.37c.58.9,1.56,1.31,2.17.9s.64-1.45.05-2.34S368.61,40.62,368,41,367.36,42.47,368,43.37Z"/><path class="cls-7" d="M534.49,139.08c.87,1.33,2.3,1.93,3.21,1.34s.94-2.14.08-3.47-2.31-1.93-3.21-1.34S533.62,137.75,534.49,139.08Z"/><path class="cls-9" d="M201.57,465.84c0,10.72-14.95,19.4-33.4,19.4s-33.4-8.68-33.4-19.4,14.95-19.39,33.4-19.39S201.57,455.13,201.57,465.84Z"/><path class="cls-10" d="M199,431.16,184.29,430,173.78,429l-21.62.68-13.74.94-2.22,1.48,3.86,31.74v0c0,8.84,12.34,16,27.57,16,14.76,0,26.8-6.74,27.53-15.2l0-.05Z"/><path class="cls-11" d="M199.05,431.74c0,9.1-14.07,16.48-31.42,16.48s-31.42-7.38-31.42-16.48,14.07-16.48,31.42-16.48S199.05,422.64,199.05,431.74Z"/><path class="cls-12" d="M188.1,431.74c0,5.93-9.16,10.74-20.47,10.74s-20.48-4.81-20.48-10.74S156.32,421,167.63,421,188.1,425.81,188.1,431.74Z"/><path class="cls-13" d="M185.93,377.37a18.3,18.3,0,0,0-36.6,0h0v54.24h0c0,.05,0,.09,0,.13,0,5.31,8.2,9.61,18.32,9.61s18.32-4.3,18.32-9.61c0,0,0-.08,0-.13h0V377.37Z"/><path class="cls-14" d="M167.63,359.45a18.32,18.32,0,0,0-18.3,17.92h0v.39a46,46,0,0,0,7.52,3.61c11.14,4.67,17.24,0,22.63,4.85a58.57,58.57,0,0,1,6.49,6.9V377.37h0A18.32,18.32,0,0,0,167.63,359.45Z"/><path class="cls-15" d="M186,431.74s0-.08,0-.13h0V387.3c-1.23,5.45-3.43,10.63-11.52,12.93-14.55,4.13-15.44,13.83-24.78,20.11l-.34.23v11h0c0,.05,0,.09,0,.13,0,5.31,8.2,9.61,18.32,9.61S186,437.05,186,431.74Z"/><path class="cls-9" d="M761.36,575.75c0,10.72-15,19.4-33.4,19.4s-33.41-8.68-33.41-19.4,15-19.39,33.41-19.39S761.36,565,761.36,575.75Z"/><path class="cls-10" d="M758.82,541.07l-14.75-1.21-10.5-1-21.62.68-13.74.94L696,542l3.87,31.73v0c0,8.84,12.34,16,27.57,16,14.75,0,26.8-6.74,27.53-15.2l0-.05Z"/><path class="cls-11" d="M758.83,541.66c0,9.09-14.06,16.47-31.41,16.47S696,550.75,696,541.66s14.06-16.49,31.42-16.49S758.83,532.55,758.83,541.66Z"/><path class="cls-12" d="M747.89,541.66c0,5.93-9.17,10.73-20.47,10.73s-20.48-4.8-20.48-10.73,9.17-10.74,20.48-10.74S747.89,535.72,747.89,541.66Z"/><path class="cls-16" d="M745.72,487.28a18.3,18.3,0,0,0-36.6,0h0v54.24h0s0,.09,0,.14c0,5.3,8.2,9.6,18.32,9.6s18.32-4.3,18.32-9.6c0,0,0-.1,0-.14h0V487.28Z"/><path class="cls-17" d="M727.42,469.36a18.31,18.31,0,0,0-18.3,17.92h0v.39a45.62,45.62,0,0,0,7.52,3.61c11.13,4.67,17.24,0,22.63,4.85a57.8,57.8,0,0,1,6.49,6.9V487.28h0A18.32,18.32,0,0,0,727.42,469.36Z"/><path class="cls-18" d="M745.74,541.66s0-.1,0-.14h0V497.21c-1.23,5.45-3.43,10.63-11.52,12.93-14.55,4.13-15.45,13.83-24.79,20.11l-.33.23v11h0s0,.09,0,.14c0,5.3,8.2,9.6,18.32,9.6S745.74,547,745.74,541.66Z"/><path class="cls-9" d="M650.3,648.11l-40.71-23.33a7.11,7.11,0,0,0-.73-.37l-39.37-22.57a14.05,14.05,0,0,0-13,.22L508,632c-3.54,2.19-3.49,5.67.12,7.74l40.71,23.33.73.37L588.94,686a14.05,14.05,0,0,0,13-.21l48.49-30C654,653.66,653.91,650.18,650.3,648.11Z"/><path class="cls-3" d="M602.2,616.09a8.86,8.86,0,0,0-4-6.92l-82.8-47.65a3.11,3.11,0,0,0-2.38-.45,17.08,17.08,0,0,0-5.15,2.64h0a2.81,2.81,0,0,0-1.11,2.53V631a8.86,8.86,0,0,0,4,6.92l82.8,47.65a3.37,3.37,0,0,0,2,.52,5.29,5.29,0,0,0,2.63-.83c2.07-1.25,3-1.69,3.47-2.43a3.41,3.41,0,0,0,.54-2Z"/><path class="cls-19" d="M597.56,618.5a8.88,8.88,0,0,0-4-6.92l-82.8-47.65c-2.2-1.26-4-.22-4,2.32V631a8.86,8.86,0,0,0,4,6.92l82.8,47.65c2.2,1.26,4,.22,4-2.32Z"/><path class="cls-20" d="M563.18,644.52c4.68,7.21,12.46,10.46,17.37,7.27s5.1-11.62.41-18.83-12.46-10.46-17.37-7.26S558.49,637.32,563.18,644.52Z"/><path class="cls-21" d="M597.56,683.27V672.78L579.13,662.4l-17.31-29.62-9,7.05-18.21-36.16S515.28,615.8,506.76,621v10a8.86,8.86,0,0,0,4,6.92l82.8,47.65C595.76,686.85,597.56,685.81,597.56,683.27Z"/><g class="cls-1"><path class="cls-2" d="M49.88,617.72l20.86-12.83c2.6-1.6,2.62-4.11.16-5.71l-38.19-22a10.66,10.66,0,0,0-9.87.14L2,590.19c-2.6,1.6-2.63,4.11-.16,5.7l38.19,22A10.63,10.63,0,0,0,49.88,617.72Z"/></g><path class="cls-22" d="M85.08,406c-1.41,4.65-4.56,15.62-8,22.27-3.22,6.26-8.12,13.31-9.81,13.18-1.41-.24-.35-.73-1.9-.49s-7.88,5.15-6.33,6.33a.45.45,0,0,0,0,.17,18.19,18.19,0,0,0,8,4.28,1.77,1.77,0,0,0,.73.15,1.93,1.93,0,0,0,1.2-.43c2-1,13.88-7.62,18.49-30.24A181.61,181.61,0,0,0,90,402.52C90,401.11,86.5,401.38,85.08,406Z"/><path class="cls-23" d="M21,531.61c.09.36,1.08,10.86-2,30.26S15.85,582,15.49,585.8c-.17,2.48,4.31,5.08,8.08,6.29s11.65,1.95,15.15-1.68a2.72,2.72,0,0,0-.67-3.78s-3.46.36-5,.33c-1.17-.07-5.07-.33-4.63-2.14s4.37-23.17,5.32-34.42,1.55-23,1.55-23l-2.43-5.59L18.31,520Z"/><path class="cls-24" d="M43.13,587.31a11.55,11.55,0,0,0-5.32-.95s-1.36.21.34,1.29c1,.4,1.42,3.68-4.08,4.51-4.67.73-5.95.57-8.38-.08l-.15,0c-9.34-2.68-9.11-9.2-10.14-8.08-1.28,1.39-2.61,2.59-2.61,5.79a10,10,0,0,0,.94,4.67,30.81,30.81,0,0,1,1.76,6.13v3.2c0,.76.5,1,1.25,1s1.47-.29,1.47-1v-4.14a12.16,12.16,0,0,1,1-3.73s.9-1.86,2.08-.06,3,4.64,7,4.67,6.84-1.42,11.59-4.86S45.46,588.49,43.13,587.31Z"/><path class="cls-25" d="M39.28,537.17c.09.37,1.08,10.87-2,30.27s-3.14,20.16-3.5,23.93c-.17,2.48,4.31,5.07,8.08,6.29s11.65,2,15.15-1.69a2.71,2.71,0,0,0-.67-3.77s-3.46.36-5,.33c-1.17-.07-5.07-.33-4.63-2.15s4.37-23.17,5.32-34.41,1.54-23,1.54-23l-2.42-5.59-14.55-1.82Z"/><path class="cls-24" d="M61.45,592.87a11.48,11.48,0,0,0-5.32-.94s-1.36.2.34,1.28c1,.4,1.42,3.68-4.08,4.51-4.67.74-6,.57-8.38-.07l-.15,0c-9.34-2.68-9.11-9.19-10.15-8.07-1.27,1.39-2.6,2.59-2.6,5.79a10.08,10.08,0,0,0,.94,4.67,29.77,29.77,0,0,1,1.75,6.13v3.21c0,.75.51,1,1.26,1s1.47-.28,1.47-1v-4.16a12.15,12.15,0,0,1,1-3.72s.89-1.86,2.08-.07,3,4.65,7,4.67,6.84-1.41,11.59-4.85S63.77,594.05,61.45,592.87Z"/><path class="cls-26" d="M21.14,437.57c0,4.42,9.23,8-7.57,8-4.19,0-6.93-3.67-7.78-8-3-15.16,3.59-8,7.78-8A7.8,7.8,0,0,1,21.14,437.57Z"/><path class="cls-27" d="M22.85,415.85c0-1.25-4.67-17.77-4.67-18.05s-1.72-3.88-2.61-5.79c.8-4.36,10.22-13.78-1.67-9.59-4.38,1.58-5.77,3.84-7,8.73a16,16,0,0,0-.45,6.16c.29,1.35.29,11.2-1.35,19.26-1.71,8.35-2.79,15.09.36,17s7.09,1.7,10,1.43,9.6-3.14,9.6-3.14S22.85,417.11,22.85,415.85Z"/><path class="cls-28" d="M55.18,448.72c-3.06-4.94-3.06-4.85-3.06-7.81a195.91,195.91,0,0,1,1.17-20.57c1-8.08,3.77-10.41,3.23-16.34s0-11.13-10.68-15.71c-4.76-1.24-16.69-6.36-21-6.75a13.63,13.63,0,0,0-3.61-.48c-5.35,0-9.8,2.94-10.83,6.84-2.41,6.22-.25,15,.39,25.62.67,11.11,5.59,25.86,5.86,27.07s.94,2.5-.2,3.84c-5.06,5.93-6.27,14.35-6.27,14.35s0,.09,0,.24a26.91,26.91,0,0,0-.39,4.54c0,.85.05,1.69.13,2.52-.06,2.82,1,5.19,3.71,13.92,3.1,14.94,1,48.35,1,48.35,0,5.1,9.59,9.23,21.41,9.23s21.42-4.13,21.42-9.23c0,0,.27-48.15.54-55S58.23,453.66,55.18,448.72Z"/><path class="cls-24" d="M80.25,427.14A3.26,3.26,0,0,1,76.06,429L46.24,417.34a3.23,3.23,0,0,1-1.84-4.18l16.2-41.54a3.24,3.24,0,0,1,4.19-1.84l29.82,11.63a3.24,3.24,0,0,1,1.84,4.19Z"/><polygon class="cls-29" points="77.24 425.96 77.24 425.96 77.23 425.96 47.41 414.33 63.61 372.79 93.44 384.43 77.24 425.96 77.24 425.96 77.24 425.96"/><path class="cls-30" d="M64.81,436.53s-1.75-3.8-4.56-9.68c-2.89-6.06-5.51-12.11-4.6-16a42.72,42.72,0,0,0,.91-7.66c0-.4,0-.81,0-1.21,0-6.28-3.94-11.36-8.8-11.36-4.64,0-8.44,4.64-8.77,10.53l0,0c-.89,8.49,5,22.16,7.05,25.61s6.65,14,7.59,16.22,4,5,6.11,5.47,5.61-4.5,6.87-6.28C67.48,441,64.81,436.53,64.81,436.53Z"/><path class="cls-31" d="M42,376.39l-.61-.91-2.89-2.73-6-.34-4.69,1s.61,1.31.34,4.51a18.06,18.06,0,0,1-1.06,5.08,1.44,1.44,0,0,0-.3.65c-.33,1.68,2.29,3.6,5.84,4.28s6.7-.12,7-1.8a1.61,1.61,0,0,0,0-.49c.05-.52.1-1.32.14-2.63A14,14,0,0,1,42,376.39Z"/><path class="cls-32" d="M58.19,346.18c.16,1.67.22,8.29.22,10.13,0,10.41-3,18.22-8.17,19.64-16.48,4.34-20.47-4.2-20.47-14.62s19-23.88,22.4-23.88C55,337.45,57.43,338.33,58.19,346.18Z"/><path class="cls-33" d="M58.68,343.06c0,.93-.06,4-1,4-4.08-.11-7.18,1.78-6,6.8.84,3.43-.16,9.56-4.26,18.61-1.16,2.55,1.53,6.64-.27,6.64-.63,0-2.09-.7-2.11-4.4,0-4.82,2.38-8.44,2.65-9.61,2.68-9.8-4.84-8.57-5.93-6.86-1.51,2.36-4.17,5.43.23,9.65,3.64,3.5-6.37,8.51-9.23,7.72-7.66-2.11-7.81,1.65-9.16,3.37-6.93,8.84-5.64-29.1-5.64-35.92s7.63-11.63,18.86-11.63S58.68,336.24,58.68,343.06Z"/><path class="cls-34" d="M32.28,346.47c0,5-3.67,9.12-8.19,9.12s-8.2-4.08-8.2-9.12,3.67-9.11,8.2-9.11S32.28,341.44,32.28,346.47Z"/><path class="cls-35" d="M28.06,361.87c1.35-10.95,1.4-12.69,1.1-14.44h0c-.45-3.7-3.23-6.56-6.6-6.56s-5.15,3-6.58,6.46h0s-7.74,18.05-6.13,35.83,1.35,18.77,10.24,34.31c3.59,7.45,3.95,8.17,3.77,11s2.15,4.41,2.6-1.52.9-13.29-3.14-25.33a34,34,0,0,1-.45-19.12C24.2,377.14,26.09,372.47,28.06,361.87Z"/><g class="cls-1"><path class="cls-2" d="M488,307.66c-3.08-1.77-5.61-.31-5.61,3.24V455.18a12.4,12.4,0,0,0,5.61,9.69l51.29,29.53c3.09,1.77,5.61.31,5.61-3.24V346.87a12.4,12.4,0,0,0-5.61-9.69Z"/></g><path class="cls-3" d="M529.46,344.05l-51.3-29.52a3.9,3.9,0,0,0-4-.36,46.63,46.63,0,0,0-8,3.85c-1.06.57-1.72,1.83-1.72,3.66V466a12.39,12.39,0,0,0,5.6,9.69l51.29,29.52a5.25,5.25,0,0,0,2.26.74c.4.06,2.49.2,6.17-2.05,1.94-1.23,2.94-1.84,3.43-2.13a2.65,2.65,0,0,0,.39-.23l0,0h0a4.09,4.09,0,0,0,1.4-3.45V353.74A12.42,12.42,0,0,0,529.46,344.05Z"/><path class="cls-11" d="M470.08,318.44c-3.08-1.78-5.6-.32-5.6,3.24V466a12.39,12.39,0,0,0,5.6,9.69l51.29,29.52c3.09,1.77,5.61.32,5.61-3.24V357.65a12.37,12.37,0,0,0-5.61-9.69Z"/><polygon class="cls-36" points="480.46 360.79 503.9 374.28 503.9 362.69 480.46 349.2 480.46 360.79"/><polygon class="cls-36" points="518.36 413.34 518.36 401.75 478.04 378.55 478.04 390.14 518.36 413.34"/><polygon class="cls-36" points="507.13 411.55 471.21 390.87 471.21 402.47 507.13 423.14 507.13 411.55"/><polygon class="cls-36" points="478.04 422.65 518.36 445.85 518.36 434.26 478.04 411.05 478.04 422.65"/><polygon class="cls-36" points="471.21 434.97 518.36 462.11 518.36 450.51 471.21 423.38 471.21 434.97"/><polygon class="cls-36" points="471.21 439.63 471.21 451.22 494.47 464.61 494.47 453.02 471.21 439.63"/><g class="cls-1"><path class="cls-2" d="M371.84,97.53c-3.08-1.78-5.61-.32-5.61,3.24V245.05a12.4,12.4,0,0,0,5.61,9.69l51.29,29.52c3.08,1.78,5.61.32,5.61-3.24V136.74a12.41,12.41,0,0,0-5.61-9.69Z"/></g><path class="cls-3" d="M413.25,133.92,362,104.4a3.88,3.88,0,0,0-4-.36,45.79,45.79,0,0,0-8,3.85c-1.06.57-1.73,1.83-1.73,3.66V255.83a12.4,12.4,0,0,0,5.61,9.69L405.17,295a5.21,5.21,0,0,0,2.26.74c.4.06,2.49.19,6.16-2.06,2-1.22,2.94-1.83,3.44-2.12a3,3,0,0,0,.38-.23l0,0h0a4.12,4.12,0,0,0,1.4-3.45V143.61A12.37,12.37,0,0,0,413.25,133.92Z"/><path class="cls-11" d="M353.88,108.31c-3.09-1.78-5.61-.32-5.61,3.24V255.83a12.4,12.4,0,0,0,5.61,9.69L405.17,295c3.08,1.77,5.61.31,5.61-3.24V147.52a12.4,12.4,0,0,0-5.61-9.69Z"/><polygon class="cls-36" points="364.26 150.66 387.7 164.15 387.7 152.56 364.26 139.07 364.26 150.66"/><polygon class="cls-36" points="402.15 203.21 402.15 191.62 361.83 168.41 361.83 180 402.15 203.21"/><polygon class="cls-36" points="390.93 201.41 355.01 180.74 355.01 192.33 390.93 213 390.93 201.41"/><polygon class="cls-36" points="361.83 212.51 402.15 235.72 402.15 224.13 361.83 200.92 361.83 212.51"/><polygon class="cls-36" points="355.01 224.84 402.15 251.97 402.15 240.38 355.01 213.25 355.01 224.84"/><polygon class="cls-36" points="355.01 229.5 355.01 241.09 378.27 254.48 378.27 242.88 355.01 229.5"/><path class="cls-9" d="M541.77,276.66c.1,0,.22.06.32.07a3,3,0,0,0,.43,0h.22a2.43,2.43,0,0,0,.38-.13,2.58,2.58,0,0,0,1.37-2.6V196.84a8.6,8.6,0,0,0-3.88-6.71L453.32,139.9c-1.25-.73-2.36-.66-3.07,0a1.89,1.89,0,0,0-.2.2,2.9,2.9,0,0,0-.19.29,2,2,0,0,0-.14.25,4.38,4.38,0,0,0-.13.43,1.82,1.82,0,0,0-.07.25,4.12,4.12,0,0,0-.08.81v77.13a8.57,8.57,0,0,0,3.88,6.71L501,253.45h0l24,13.84v0l7.56,4.35.28.16,7.69,4.43a3.94,3.94,0,0,0,.76.35A3.24,3.24,0,0,0,541.77,276.66Z"/><path class="cls-37" d="M530,196.76l-87.28-50.23a3.12,3.12,0,0,0-2.23-.46c-.31,0-.85.35-3.83,1.61a15,15,0,0,0-3.86,2.15,2.89,2.89,0,0,0-.93,2.37v77.13a8.6,8.6,0,0,0,3.88,6.71l73.4,42.26,6.2,3.55,7.68,4.43a2.76,2.76,0,0,0,2.69.28c.46-.12,1.23-.37,2.51-.84a12.37,12.37,0,0,0,4.62-2.68,2.77,2.77,0,0,0,1-2.43V203.48A8.58,8.58,0,0,0,530,196.76Z"/><path class="cls-38" d="M524.16,286.72l.32.06a2.12,2.12,0,0,0,.44,0,1.36,1.36,0,0,0,.21,0,1.63,1.63,0,0,0,.39-.13,2.57,2.57,0,0,0,1.37-2.59V206.9a8.6,8.6,0,0,0-3.89-6.72L435.72,150a2.5,2.5,0,0,0-3.07,0l-.2.21a2.08,2.08,0,0,0-.19.29,2,2,0,0,0-.14.25c-.05.13-.09.28-.13.42a2.58,2.58,0,0,0-.08.26,5.09,5.09,0,0,0-.07.81v77.13a8.6,8.6,0,0,0,3.88,6.71l47.72,27.46v0l24,13.84v0l7.56,4.35.28.16,7.68,4.43a5.15,5.15,0,0,0,.77.35Z"/><path class="cls-20" d="M490.82,236.19c6.55,10.08,17.44,14.64,24.32,10.17s7.14-16.27.58-26.36-17.44-14.65-24.33-10.18S484.26,226.09,490.82,236.19Z"/><path class="cls-36" d="M521.6,266.61l-24.24-41.49L484.78,235l-25.5-50.65s-14.88,9.33-27.44,17.12v27.86a8.6,8.6,0,0,0,3.88,6.71l47.72,27.46v0l24,13.84v0l7.56,4.35.28.16,7.68,4.43a5.15,5.15,0,0,0,.77.35l.39.09.32.06a2.12,2.12,0,0,0,.44,0,1.36,1.36,0,0,0,.21,0,1.63,1.63,0,0,0,.39-.13,2.57,2.57,0,0,0,1.37-2.59V269.59Z"/><path class="cls-9" d="M448.47,453.06l.21.05.27,0h.14a1.7,1.7,0,0,0,.24-.09,1.62,1.62,0,0,0,.87-1.64V402.51a5.46,5.46,0,0,0-2.46-4.25l-55.28-31.81a1.59,1.59,0,0,0-1.95,0l-.12.13-.12.18-.09.16a2.13,2.13,0,0,0-.08.27.75.75,0,0,0-.05.16,2.78,2.78,0,0,0,0,.51v48.85a5.44,5.44,0,0,0,2.45,4.25l30.22,17.39h0l15.22,8.77h0l4.78,2.75.18.1,4.87,2.8a2.5,2.5,0,0,0,.48.22Z"/><path class="cls-39" d="M441,402.47l-55.27-31.82a2,2,0,0,0-1.41-.29c-.2,0-.54.22-2.42,1a9,9,0,0,0-2.45,1.37,1.79,1.79,0,0,0-.59,1.49v48.85a5.42,5.42,0,0,0,2.46,4.25L427.8,454.1l3.92,2.25,4.87,2.8a1.73,1.73,0,0,0,1.7.18c.29-.08.78-.23,1.6-.53a7.8,7.8,0,0,0,2.92-1.7,1.77,1.77,0,0,0,.65-1.54V406.72A5.41,5.41,0,0,0,441,402.47Z"/><path class="cls-40" d="M437.33,459.43a1.77,1.77,0,0,0,.2,0,.88.88,0,0,0,.28,0h.13a1.06,1.06,0,0,0,.25-.09,1.63,1.63,0,0,0,.86-1.64V408.88a5.45,5.45,0,0,0-2.46-4.25l-55.27-31.81a1.58,1.58,0,0,0-1.95,0l-.13.13a.78.78,0,0,0-.11.18.51.51,0,0,0-.09.16,2.14,2.14,0,0,0-.09.27c0,.05,0,.1,0,.16a2.76,2.76,0,0,0-.05.51v48.85a5.42,5.42,0,0,0,2.46,4.25l30.21,17.39h0l15.22,8.77v0l4.79,2.76.17.1,4.87,2.8a2.32,2.32,0,0,0,.49.22A2.27,2.27,0,0,0,437.33,459.43Z"/><path class="cls-9" d="M421,364.16a1.18,1.18,0,0,0,.2,0,1.34,1.34,0,0,0,.28,0h.13a1.7,1.7,0,0,0,.24-.09,1.62,1.62,0,0,0,.87-1.64V313.61a5.45,5.45,0,0,0-2.46-4.25L365,277.55a1.58,1.58,0,0,0-1.95,0,.8.8,0,0,0-.13.13,1.4,1.4,0,0,0-.12.18l-.09.16a1.73,1.73,0,0,0-.08.27,1.42,1.42,0,0,1-.05.16,2.78,2.78,0,0,0,0,.51v48.85a5.42,5.42,0,0,0,2.46,4.25l30.21,17.39h0l15.22,8.77v0l4.78,2.76.18.1,4.87,2.8a2.32,2.32,0,0,0,.49.22A1.83,1.83,0,0,0,421,364.16Z"/><path class="cls-41" d="M413.53,313.56l-55.28-31.81a1.93,1.93,0,0,0-1.41-.29,25.61,25.61,0,0,0-2.43,1,9.43,9.43,0,0,0-2.44,1.36,1.82,1.82,0,0,0-.59,1.5v48.85a5.42,5.42,0,0,0,2.46,4.25l46.48,26.76,3.93,2.25,4.86,2.8a1.75,1.75,0,0,0,1.71.18c.28-.08.77-.24,1.59-.53a7.8,7.8,0,0,0,2.92-1.7,1.77,1.77,0,0,0,.65-1.54V317.82A5.46,5.46,0,0,0,413.53,313.56Z"/><path class="cls-42" d="M409.85,370.53l.2,0a1.29,1.29,0,0,0,.28,0h.13a1,1,0,0,0,.25-.08,1.63,1.63,0,0,0,.86-1.64V320a5.42,5.42,0,0,0-2.46-4.25l-55.27-31.81a1.58,1.58,0,0,0-1.95,0l-.13.13a1.08,1.08,0,0,0-.11.18.83.83,0,0,0-.09.16,1.71,1.71,0,0,0-.09.27c0,.05,0,.1,0,.16a2.59,2.59,0,0,0-.05.51v48.85a5.42,5.42,0,0,0,2.46,4.25l30.21,17.39h0l15.22,8.76h0l4.79,2.76.18.1,4.86,2.8a3,3,0,0,0,.49.22Z"/><path class="cls-43" d="M389.52,81.82,302.24,31.59a3.07,3.07,0,0,0-2.23-.46,39,39,0,0,0-3.83,1.6,14.54,14.54,0,0,0-3.86,2.16,2.87,2.87,0,0,0-.93,2.36v77.14a8.6,8.6,0,0,0,3.88,6.71l58.5,33.66,13.3,37.36,7.8-4V166.9l7.68,4.43a2.77,2.77,0,0,0,2.69.29c.46-.13,1.23-.37,2.51-.84a12.37,12.37,0,0,0,4.62-2.68,2.79,2.79,0,0,0,1-2.44V88.53A8.58,8.58,0,0,0,389.52,81.82Z"/><path class="cls-44" d="M382.55,85.24,295.27,35c-2.13-1.23-3.88-.22-3.88,2.24v77.14a8.6,8.6,0,0,0,3.88,6.71L343,148.56l24,43.68V162.39l15.52,8.94c2.14,1.23,3.89.22,3.89-2.24V92A8.59,8.59,0,0,0,382.55,85.24Z"/><path class="cls-45" d="M325.28,107.75l-9.17-11.52a4.36,4.36,0,0,1-.66-1,2.12,2.12,0,0,1-.19-.88v-.54a1,1,0,0,1,.19-.68,1.11,1.11,0,0,1,.66-.33l9.17-2,.29,0a.75.75,0,0,1,.41.08,1.13,1.13,0,0,1,.44.4,1,1,0,0,1,.18.55v1.29a.63.63,0,0,1-.16.48,1.11,1.11,0,0,1-.52.2L318,95.49l7.93,10a4.89,4.89,0,0,1,.53.78,1.34,1.34,0,0,1,.15.61v1.29q0,.31-.18.39a.48.48,0,0,1-.44-.05A3,3,0,0,1,325.28,107.75Z"/><path class="cls-45" d="M329.54,115a1,1,0,0,1-.18-.53.91.91,0,0,1,.09-.33L339.5,93.78a.53.53,0,0,1,.76-.12l1.09.59a1.11,1.11,0,0,1,.41.4,1,1,0,0,1,.18.53.91.91,0,0,1-.09.33l-10.08,20.26a.38.38,0,0,1-.25.23.64.64,0,0,1-.51-.09l-1.06-.53A1,1,0,0,1,329.54,115Z"/><path class="cls-45" d="M344.85,117.94a1,1,0,0,1-.18-.55v-1.27a.61.61,0,0,1,.15-.45,1.07,1.07,0,0,1,.53-.21l7.93-1.56-7.93-9.84a4.47,4.47,0,0,1-.52-.74,1.28,1.28,0,0,1-.16-.63v-1.27c0-.19.05-.31.16-.36a.47.47,0,0,1,.43.06,1.55,1.55,0,0,1,.42.36l.31.34,9.17,11.41a4.83,4.83,0,0,1,.66,1,2,2,0,0,1,.19.84v.52a1,1,0,0,1-.19.65,1,1,0,0,1-.66.28L346,118.37a1.09,1.09,0,0,1-.73,0A1.12,1.12,0,0,1,344.85,117.94Z"/><g class="cls-1"><path class="cls-2" d="M285.07,515.6a11.72,11.72,0,0,0-10.85.16l-22.94,14.11c-2.95,1.82-2.91,4.73.1,6.46l75,43.15a11.7,11.7,0,0,0,10.84-.16l22.94-14.11c3-1.82,2.91-4.73-.09-6.46Z"/></g><path class="cls-46" d="M266.41,345.81l28.66-1.26s.84-4.2,4.2-3.88,13.12-.11,13.12-.11,5.88-.94-2.94,2.94-10.29,5-13,4.2c-2,.11-26.14,7.77-28.23,6.72s-1.68-3.78-1.68-3.78Z"/><path class="cls-47" d="M289.28,300.82h-4.66s-8.38,2.53-13.16,17.16-7.18,21.54-7.31,24.73-1.33,9.44,2.13,11.16,6.11-.26,7.84-2.26.93-4.12,2.52-8.24,2.53-10.24,5.59-12.37,7.18-7.7,7.18-7.7Z"/><path class="cls-48" d="M274.8,529.22l-1.26.93a35.75,35.75,0,0,0-.23,4.75c.11,1.75-.69,3.61.23,3.92s3.31,1,5,.31,1.48-2.58,2.51-2.48,7.09-1.44,11.2-3.51,5.38-5,2.06-4.85-10.63,1.44-13.49,2c-.61.13-.72-.32-.72-.32l-1.22-.19-1.52-.21Z"/><path class="cls-49" d="M280.17,530.15c0,.91-1.48,1.65-3.32,1.65s-3.31-.74-3.31-1.65,1.48-1.65,3.31-1.65S280.17,529.24,280.17,530.15Z"/><path class="cls-50" d="M285.68,391.38c-7.22,1.38-5.21,5.35-5.21,9.07s-2.14,23.42-4.78,49.14c-2.44,23.66-1.22,34-1.5,52.14-.23,14.43-1.27,21.87-1.68,24.33a2.76,2.76,0,0,0-.18,1c0,2,2.11,3.71,4.71,3.71s4.72-1.66,4.72-3.71c0,0,2.76-36.18,3.25-40,2.42-19.18,8.89-42.11,11.32-50.68S309.18,398,309.18,398,301.69,388.3,285.68,391.38Z"/><path class="cls-51" d="M298.18,310.65c.55-1,4.39-9.38,5-14.86s.33-8.52.69-8.65,3.76-.92,3.76-.92l6.47,3.45,3,1.29s1.82,4.68-.62,7c-5.79,5.18-4.56,17.74-.68,17.43.36,0,0,4.13-3.81,2.77a57.53,57.53,0,0,1-9.43-4.31C301.85,313.26,298.18,310.65,298.18,310.65Z"/><path class="cls-52" d="M319.46,289.26a1.8,1.8,0,0,0,1.3-1.52c0-.9-2.91-6.09-4.28-7.24-.12-1-.26-2.19-.4-3.23-.29-2.18-.82-3.53-2.59-3.53a37.62,37.62,0,0,0-5.66.9s-4.56,2.55-4.56,2.67-5.67,12.77-5.67,13.18,7.51,9.78,19.42,9.81a2.71,2.71,0,0,0,2.71-2.71,2.64,2.64,0,0,0-.17-.93,15,15,0,0,1-.24-2.27c0-1.31.74-1.89.41-2.54s-.82-1.07-.57-1.73C319.24,289.91,319.35,289.6,319.46,289.26Z"/><path class="cls-53" d="M316.41,549l-1.57,1.29a54.77,54.77,0,0,0-.28,6.57c.14,2.43-.86,5,.28,5.43s4.15,1.43,6.29.43,1.86-3.57,3.14-3.43,8.86-2,14-4.86,6.72-7,2.57-6.71-13.28,2-16.85,2.71c-.77.18-.91-.43-.91-.43l-1.52-.27-1.9-.3Z"/><path class="cls-49" d="M323.13,550.26c0,1.26-1.86,2.28-4.14,2.28s-4.15-1-4.15-2.28S316.7,548,319,548,323.13,549,323.13,550.26Z"/><path class="cls-54" d="M326.91,395.89l-16.67,2.7c-1.06-6.93-5.74-12.14-11.34-12.14-6.39,0-11.57,6.78-11.57,15.14a18.54,18.54,0,0,0,1.76,8c3.05,8.13,15.46,18,16.81,30.58,1.43,13.43,5.57,19.14,6.14,27s1.15,44,1.86,55.56S315,548,315,548a3.9,3.9,0,0,0,7.71,0s4.18-58.74,4.46-71.88.15-14,.29-30.43C327.63,426.64,326.91,395.89,326.91,395.89Z"/><path class="cls-55" d="M327,355.2c2.92-12,4.65-16.62,4.65-16.62L330,316.51a51,51,0,0,0-14.36-5.45c-5.71-1.07-8.67-1.59-14.09-4.39-1.35-.69-4-4.38-10.44-6.18,0,0-6.28-1.89-8.84,2.46-3.35,5.7-1.59,12.1.13,26.46s1.87,31,0,43.21c-1.08,7.11-2.87,15.55-2,20.61a1,1,0,0,1,0,.17,4.51,4.51,0,0,0,.41,1.39,4.29,4.29,0,0,0,2.09,2.53c3.88,3.13,11.87,5.32,21.45,5.32,9.06,0,16.57-1.74,20.6-4.46,1.81-.62,3.78-2.73,3.7-8.81C328.5,378.87,324.11,367.17,327,355.2Z"/><path class="cls-2" d="M314.79,274.77c.82-4.36-.12-13.25-.12-13.25a1.3,1.3,0,0,0-1.35-1.26c-10.92-.39-21.92,13.4-24.06,16.23a7.46,7.46,0,0,0-1.89,4.89,6.9,6.9,0,0,0,.2,1.65.83.83,0,0,0,0,.15c.75,5.33,9.16,14.05,9.16,14.05h.07a5.09,5.09,0,0,0,3.61,1.47,4.86,4.86,0,0,0,4.87-3.84l0-.07a32.23,32.23,0,0,0,.66-9.61c-.11-1.76,5.39-3.44,5.53-3.46l.07,0a3.43,3.43,0,0,0,2.17-2.13v0a.42.42,0,0,0,0-.06,3.35,3.35,0,0,0,.11-.55C314.07,277.78,314.07,277.56,314.79,274.77Z"/><path class="cls-56" d="M347.51,355.6l36.3-1.59s1.06-5.32,5.32-4.92,16.62-.14,16.62-.14,7.44-1.19-3.72,3.73-13,6.38-16.49,5.32c-2.53.13-33.11,9.83-35.77,8.51s-2.13-4.79-2.13-4.79Z"/><path class="cls-57" d="M352,353.7c-.37-1.86-3.49-4.45-10.07-19.7-3.89-9-7-13.27-8.87-15.27a9.91,9.91,0,0,0-7.55-3.41,9.45,9.45,0,0,0-9.71,9.17,8.74,8.74,0,0,0,.2,1.85c-.15,6.7,19.85,26.11,22.83,29.7s3.92,7.19,7.78,10.3c4.23,3.29,5.39,1.42,4.56-2.46C350.39,360.28,352.9,358.29,352,353.7Z"/><g class="cls-1"><path class="cls-2" d="M512.15,721.93a13.22,13.22,0,0,1,12.23.18L550.25,738c3.33,2.05,3.29,5.33-.11,7.28L465.59,794a13.24,13.24,0,0,1-12.24-.18l-25.86-15.91c-3.34-2-3.29-5.33.1-7.28Z"/></g><path class="cls-58" d="M514,537l-28.88-14.57s1.08-4.7-2.52-5.94-13.45-6.18-13.45-6.18-5.61-3.69,1.66,4.38,8.25,9.95,11.45,10.35c2,1,23.28,20.09,25.92,20s3.48-3.11,3.48-3.11Z"/><path class="cls-59" d="M511.35,480.16l4.79,2.15s7.44,6.48,5.59,23.74-2.59,25.47-3.93,28.81-3,10.33-7.36,10.51-6.17-3.11-7-6,.95-4.67,1.22-9.65,2.15-11.7,0-15.3-3.81-11.25-3.81-11.25Z"/><path class="cls-60" d="M523.73,737.29l1.42,1.05a39.15,39.15,0,0,1,.26,5.35c-.13,2,.77,4.07-.26,4.42s-3.73,1.17-5.67.35-1.68-2.91-2.83-2.79-8-1.63-12.63-4-6.06-5.7-2.32-5.47,12,1.63,15.2,2.21c.7.15.82-.35.82-.35l1.38-.22,1.71-.24Z"/><path class="cls-49" d="M517.68,738.34c0,1,1.67,1.86,3.74,1.86s3.73-.84,3.73-1.86-1.67-1.86-3.73-1.86S517.68,737.31,517.68,738.34Z"/><path class="cls-61" d="M511.46,581.83c8.14,1.57,5.87,6,5.87,10.23s2.42,26.42,5.4,55.42c2.75,26.69,1.37,38.34,1.69,58.8.26,16.27,1.43,24.68,1.9,27.45a3.44,3.44,0,0,1,.19,1.07c0,2.31-2.38,4.18-5.31,4.18s-5.32-1.87-5.32-4.18c0,0-3.11-40.81-3.66-45.15-2.74-21.63-10-47.49-12.77-57.15S485,589.24,485,589.24,493.41,578.37,511.46,581.83Z"/><path class="cls-62" d="M497.37,490.79c-.63-1.18-5-10.58-5.65-16.76s-.38-9.61-.79-9.75-4.24-1-4.24-1l-7.29,3.89-3.34,1.46s-2.05,5.27.7,7.85c6.53,5.83,5.14,20,.76,19.65-.4,0,0,4.66,4.31,3.13a67,67,0,0,0,10.63-4.86C493.22,493.73,497.37,490.79,497.37,490.79Z"/><path class="cls-63" d="M473.36,466.67A2,2,0,0,1,471.9,465c0-1,3.28-6.87,4.83-8.17.13-1.11.29-2.47.44-3.64.33-2.46.93-4,2.92-4a42.64,42.64,0,0,1,6.39,1s5.14,2.87,5.14,3,6.39,14.4,6.39,14.87-8.47,11-21.9,11.06a3,3,0,0,1-2.86-4.1,16.31,16.31,0,0,0,.27-2.56c0-1.49-.84-2.13-.47-2.87s.93-1.21.65-1.95Z"/><path class="cls-64" d="M476.8,759.57l1.77,1.44a61.19,61.19,0,0,1,.32,7.42c-.16,2.74,1,5.63-.32,6.12s-4.67,1.61-7.09.48-2.09-4-3.54-3.86-10-2.26-15.79-5.48-7.57-7.9-2.9-7.57,15,2.25,19,3a.75.75,0,0,0,1-.49l1.72-.3,2.14-.33Z"/><path class="cls-49" d="M469.22,761c0,1.43,2.1,2.58,4.68,2.58s4.67-1.15,4.67-2.58-2.09-2.57-4.67-2.57S469.22,759.59,469.22,761Z"/><path class="cls-65" d="M465,586.92,483.76,590c1.2-7.81,6.47-13.7,12.79-13.7,7.21,0,13.05,7.65,13.05,17.08a21,21,0,0,1-2,9c-3.44,9.17-17.45,20.26-19,34.48-1.62,15.14-6.29,21.58-6.93,30.45s-1.29,49.62-2.09,62.67-1.26,28.55-1.26,28.55c0,2.06-1.94,3.74-4.34,3.74s-4.35-1.68-4.35-3.74c0,0-4.71-66.25-5-81.07s-.16-15.79-.33-34.32C464.15,621.6,465,586.92,465,586.92Z"/><path class="cls-66" d="M464.82,541c-3.3-13.49-5.25-18.74-5.25-18.74l1.95-24.9a57.29,57.29,0,0,1,16.19-6.14c6.45-1.21,9.79-1.8,15.9-4.95,1.52-.79,4.46-4.95,11.77-7,0,0,7.09-2.14,10,2.77,3.78,6.43,1.8,13.64-.15,29.84s-2.1,34.93,0,48.73c1.22,8,3.24,17.54,2.23,23.24a1.21,1.21,0,0,1,0,.19,4.71,4.71,0,0,1-.46,1.57,4.76,4.76,0,0,1-2.36,2.85c-4.36,3.54-13.38,6-24.18,6-10.22,0-18.69-2-23.24-5-2-.7-4.26-3.08-4.17-9.94C463.17,567.73,468.12,554.53,464.82,541Z"/><path class="cls-67" d="M478.64,450.33c-.93-4.91.12-14.95.12-14.95a1.47,1.47,0,0,1,1.53-1.42c12.32-.44,24.72,15.12,27.14,18.31a8.43,8.43,0,0,1,2.12,5.51,8.32,8.32,0,0,1-.22,1.87,1,1,0,0,1,.05.16c-.85,6-10.33,15.85-10.33,15.85H499a5.77,5.77,0,0,1-4.07,1.65,5.49,5.49,0,0,1-5.5-4.33l0-.08a35.84,35.84,0,0,1-.74-10.83c.11-2-6.09-3.88-6.25-3.91l-.08,0a3.9,3.9,0,0,1-2.44-2.41h0a.15.15,0,0,0,0-.07,4.26,4.26,0,0,1-.13-.62C479.44,453.73,479.44,453.47,478.64,450.33Z"/><path class="cls-68" d="M458.49,548.1l-10,54.92s-6.11.35-6.34,5.16-2.78,18.54-2.78,18.54-2.52,8.12,4.75-3.57,9.19-13.54,8.55-17.56c.55-2.8,15.42-34.34,14.81-37.64-.5-2.73,4.91-13.67,2.18-18-.37-.58-5.47,4-5.47,4Z"/><path class="cls-69" d="M457.67,551.21c-1.47-1.55.63-6.34-2.35-24.84-1.76-10.92-1.4-16.85-.81-19.89a11.16,11.16,0,0,1,5.12-7.83c5.1-3.24,11.72-2,14.78,2.85a9.79,9.79,0,0,1,.94,1.89c4.2,6.28-3.08,36.85-3.75,42.07s.28,9.7-4.05,9.55C464.27,554.9,459.91,553.61,457.67,551.21Z"/><g class="cls-1"><path class="cls-2" d="M320.36,658.28a9.26,9.26,0,0,0-8.58-.23l-65.6,36.75c-2.4,1.34-2.46,3.63-.14,5.1l81.9,51.72a9.23,9.23,0,0,0,8.58.22l65.6-36.74c2.4-1.34,2.46-3.64.14-5.1Z"/></g><path class="cls-70" d="M398,708.16l.25-6.77a2.61,2.61,0,0,0-1.47-2.73l-73.43-46.37a8.33,8.33,0,0,0-7.69-.2L256.85,685a2.68,2.68,0,0,0-1.63,2.42l-.29,6.92a1.86,1.86,0,0,0,0,.41v.06h0a2.93,2.93,0,0,0,1.51,2.1l73.43,46.36a8.33,8.33,0,0,0,7.69.21l58.82-32.94a2.71,2.71,0,0,0,1.63-2.41Z"/><path class="cls-71" d="M323.36,652.29a8.33,8.33,0,0,0-7.69-.2L256.85,685c-2.14,1.21-2.2,3.26-.11,4.58L330.16,736a8.33,8.33,0,0,0,7.69.2l58.82-32.94c2.14-1.21,2.2-3.26.12-4.58Z"/><path class="cls-72" d="M412.29,697l-.15-6.78a2.59,2.59,0,0,0-1.63-2.63L334.46,645.6a8.31,8.31,0,0,0-7.68.26L270,682.23a2.67,2.67,0,0,0-1.49,2.51l.12,6.92a2.81,2.81,0,0,0,0,.41v.07h0a2.91,2.91,0,0,0,1.63,2l76.05,41.93a8.33,8.33,0,0,0,7.69-.25l56.76-36.38a2.68,2.68,0,0,0,1.49-2.49Z"/><path class="cls-73" d="M334.46,645.6a8.31,8.31,0,0,0-7.68.26L270,682.23c-2.07,1.33-2,3.39.15,4.58l76.05,41.93a8.31,8.31,0,0,0,7.68-.26l56.76-36.37c2.08-1.33,2-3.38-.15-4.57Z"/><path class="cls-74" d="M405.46,682.35l0-6.78a2.59,2.59,0,0,0-1.58-2.66l-75.27-43.32a8.3,8.3,0,0,0-7.69.12L263.47,665a2.7,2.7,0,0,0-1.53,2.48v6.92a1.41,1.41,0,0,0,0,.41v.07h0a2.89,2.89,0,0,0,1.59,2l75.27,43.32a8.33,8.33,0,0,0,7.69-.11l57.41-35.33a2.68,2.68,0,0,0,1.54-2.47Z"/><path class="cls-75" d="M328.58,629.59a8.3,8.3,0,0,0-7.69.12L263.47,665c-2.09,1.29-2.06,3.35.07,4.58l75.27,43.31a8.3,8.3,0,0,0,7.69-.11l57.41-35.32c2.1-1.29,2.07-3.35-.06-4.58Z"/><path class="cls-36" d="M338.92,695.66l-4.1-33.57-20.88,3.36,5.22-14.92-37.07,3.05L263.47,665c-2.09,1.29-2.06,3.35.07,4.58l75.27,43.31a8.3,8.3,0,0,0,7.69-.11l11.35-7-1-13.53Z"/><path class="cls-20" d="M373.46,675.15c0,7.3-7.78,13.22-17.38,13.22s-17.39-5.92-17.39-13.22,7.78-13.23,17.39-13.23S373.46,667.84,373.46,675.15Z"/><g class="cls-1"><path class="cls-2" d="M162.44,532.15a7.91,7.91,0,0,1,7.3-.19l55.86,31.29c2,1.14,2.09,3.1.11,4.34l-69.73,44a7.88,7.88,0,0,1-7.3.19L92.81,580.53c-2-1.13-2.09-3.09-.11-4.34Z"/></g><path class="cls-10" d="M96.32,574.63l-.21-5.77a2.2,2.2,0,0,1,1.25-2.32l62.52-39.48a7.06,7.06,0,0,1,6.55-.17l50.08,28A2.29,2.29,0,0,1,217.9,557l.24,5.89a2.06,2.06,0,0,1,0,.35v0h0a2.51,2.51,0,0,1-1.29,1.79l-62.53,39.48a7,7,0,0,1-6.54.17L97.72,576.67a2.3,2.3,0,0,1-1.4-2Z"/><path class="cls-76" d="M159.88,527.06a7.06,7.06,0,0,1,6.55-.17l50.08,28c1.83,1,1.87,2.78.1,3.9l-62.52,39.48a7.06,7.06,0,0,1-6.55.17L97.46,570.43c-1.83-1-1.87-2.77-.1-3.89Z"/><path class="cls-10" d="M91.51,562.14l0-5.78a2.2,2.2,0,0,1,1.35-2.27L157,517.21a7.08,7.08,0,0,1,6.55.09l48.89,30.09a2.28,2.28,0,0,1,1.31,2.11v5.89a2,2,0,0,1,0,.35v.06h0a2.43,2.43,0,0,1-1.36,1.72l-64.09,36.89a7.06,7.06,0,0,1-6.54-.1L92.82,564.23a2.29,2.29,0,0,1-1.31-2.1Z"/><path class="cls-77" d="M157,517.21a7.08,7.08,0,0,1,6.55.09l48.89,30.09c1.79,1.09,1.76,2.85-.06,3.89l-64.09,36.89a7.06,7.06,0,0,1-6.54-.1L92.82,558c-1.79-1.1-1.76-2.85.06-3.9Z"/><path class="cls-2" d="M162.29,551.37a.54.54,0,0,0-.3.38.41.41,0,0,0,.21.37l1.52,1.09a.92.92,0,0,0,.53.15,1,1,0,0,0,.59-.17l1.85-1.11a.53.53,0,0,0,.29-.38.36.36,0,0,0-.18-.36l-1.53-1.09a.94.94,0,0,0-.55-.16,1.11,1.11,0,0,0-.59.16Z"/><path class="cls-2" d="M153.33,537.59c-.18.11-.28.22-.3.35a.36.36,0,0,0,.2.35l.74.54a.9.9,0,0,0,.51.15,1.09,1.09,0,0,0,.54-.14l.13-.08a4.83,4.83,0,0,1,2.46-.78,5.07,5.07,0,0,1,2.36.6,23.17,23.17,0,0,1,3.19,2,7,7,0,0,0,5.49,1.3c-.7,1.24-.2,2.47,1.52,3.7a20.93,20.93,0,0,1,2.79,2.27,1.92,1.92,0,0,1,.72,1.6c-.08.49-.54,1-1.39,1.54l-.13.08a.52.52,0,0,0-.25.35.33.33,0,0,0,.17.33l.78.56a.85.85,0,0,0,.51.15,1,1,0,0,0,.56-.17l.14-.07a5.23,5.23,0,0,0,2.43-2.45,2.61,2.61,0,0,0-.51-2.47,13.72,13.72,0,0,0-3.11-2.81,4,4,0,0,1-1.4-1.47,1.72,1.72,0,0,1,.08-1.43l.1-.17a.91.91,0,0,0,.15-.58.73.73,0,0,0-.32-.43l-.4-.28a1.34,1.34,0,0,0-.62-.25,2.85,2.85,0,0,0-.88.06l-.33,0a5.64,5.64,0,0,1-2.15-.07,6.42,6.42,0,0,1-2.07-1,19.17,19.17,0,0,0-4-2.28,7.78,7.78,0,0,0-3.67-.54,9.27,9.27,0,0,0-3.91,1.43Z"/><path class="cls-2" d="M155.6,555.43a.54.54,0,0,0-.29.37.42.42,0,0,0,.21.38l1.52,1.08a.86.86,0,0,0,.53.16,1.1,1.1,0,0,0,.59-.17l1.85-1.12a.54.54,0,0,0,.29-.37.36.36,0,0,0-.19-.36l-1.52-1.09a1,1,0,0,0-.55-.16,1,1,0,0,0-.59.16Z"/><path class="cls-2" d="M130.56,551.41a5.43,5.43,0,0,0-2.46,2.46,2.56,2.56,0,0,0,.52,2.46,14.17,14.17,0,0,0,3.11,2.82,3.69,3.69,0,0,1,1.39,1.47,1.69,1.69,0,0,1-.09,1.43l-.09.18a.9.9,0,0,0-.16.57.65.65,0,0,0,.3.42l.42.3a1.37,1.37,0,0,0,.6.23,3.73,3.73,0,0,0,.91,0l.3-.06a5.79,5.79,0,0,1,2.18.07,6.2,6.2,0,0,1,2.09,1,18.51,18.51,0,0,0,4,2.26,7.9,7.9,0,0,0,3.67.55,9.36,9.36,0,0,0,3.9-1.41l.15-.1a.5.5,0,0,0,.28-.35.33.33,0,0,0-.17-.35l-.78-.56a.79.79,0,0,0-.5-.12,1.2,1.2,0,0,0-.57.14l-.13.08a5,5,0,0,1-2.44.78,5.12,5.12,0,0,1-2.37-.59,27.64,27.64,0,0,1-3.2-2,6.89,6.89,0,0,0-5.46-1.29c.7-1.24.19-2.48-1.53-3.7a22.07,22.07,0,0,1-2.78-2.26,2,2,0,0,1-.72-1.61c.08-.5.54-1,1.38-1.54l.11-.09a.57.57,0,0,0,.28-.35.35.35,0,0,0-.18-.36l-.74-.53a.82.82,0,0,0-.54-.15,1,1,0,0,0-.54.16Z"/><path class="cls-2" d="M148.92,559.48a.54.54,0,0,0-.29.38.44.44,0,0,0,.2.38l1.52,1.09a1,1,0,0,0,.54.14,1.11,1.11,0,0,0,.59-.16l1.84-1.12a.55.55,0,0,0,.3-.37.38.38,0,0,0-.19-.37l-1.52-1.08a1,1,0,0,0-.55-.17,1.13,1.13,0,0,0-.6.17Z"/><g class="cls-1"><path class="cls-2" d="M45.39,649.12a4.54,4.54,0,0,0-4.18-.11L9.27,666.9a1.33,1.33,0,0,0-.07,2.49l39.88,25.18a4.54,4.54,0,0,0,4.18.11L85.2,676.79a1.32,1.32,0,0,0,.06-2.48Z"/></g><path class="cls-10" d="M83.19,673.41l.13-3.3a1.29,1.29,0,0,0-.72-1.33L46.85,646.21a4,4,0,0,0-3.75-.1l-28.64,16a1.3,1.3,0,0,0-.79,1.18l-.14,3.36a1.41,1.41,0,0,0,0,.2v0h0a1.41,1.41,0,0,0,.74,1L50,690.52a4.07,4.07,0,0,0,3.75.1l28.64-16a1.3,1.3,0,0,0,.79-1.17Z"/><path class="cls-78" d="M46.85,646.21a4,4,0,0,0-3.75-.1l-28.64,16a1.18,1.18,0,0,0-.05,2.22L50.16,687a4.05,4.05,0,0,0,3.74.09l28.64-16a1.19,1.19,0,0,0,.06-2.23Z"/><path class="cls-79" d="M86,666.27l0-3.31a1.24,1.24,0,0,0-.77-1.29L48.52,640.58a4,4,0,0,0-3.75,0l-27.95,17.2a1.3,1.3,0,0,0-.75,1.21v3.37a.67.67,0,0,0,0,.2v0h0a1.43,1.43,0,0,0,.78,1L53.5,684.72a4,4,0,0,0,3.74-.05l28-17.2a1.33,1.33,0,0,0,.75-1.2Z"/><path class="cls-80" d="M48.52,640.58a4,4,0,0,0-3.75,0l-27.95,17.2a1.19,1.19,0,0,0,0,2.23L53.5,681.15a4.05,4.05,0,0,0,3.74,0l28-17.2a1.19,1.19,0,0,0,0-2.23Z"/><path class="cls-45" d="M57.42,659.62q.12.07.12.15c0,.06,0,.11-.13.15l-7.3,4.26a.48.48,0,0,1-.26.07.42.42,0,0,1-.26-.07l-.52-.28c-.08,0-.12-.09-.12-.15s0-.1.12-.14l3.22-1.88-3.79-2.12-3.22,1.88a.48.48,0,0,1-.26.07.5.5,0,0,1-.26-.07l-.52-.29c-.08,0-.11-.08-.11-.14a.22.22,0,0,1,.13-.14l7.3-4.26a.61.61,0,0,1,.26-.08.44.44,0,0,1,.25.06l.52.29q.12.06.12.15s-.05.1-.13.15L49.47,659l3.8,2.12,3.11-1.81a.57.57,0,0,1,.26-.08.55.55,0,0,1,.26.06Z"/><path class="cls-45" d="M49.16,655.71c.07.5-.29,1-1.06,1.43a4.67,4.67,0,0,1-2.48.64,5.53,5.53,0,0,1-2.54-.73l-2-1.09L38.3,657.6a.53.53,0,0,1-.26.07.45.45,0,0,1-.24-.06l-.55-.31c-.08,0-.11-.08-.11-.13s0-.1.13-.15l7.3-4.26a.87.87,0,0,1,.26-.08.51.51,0,0,1,.25.06l2.76,1.54C48.66,654.74,49.1,655.21,49.16,655.71Zm-5.22.78a3,3,0,0,0,3.11.06c.47-.27.7-.56.69-.86s-.32-.61-.87-.91L45,653.71,42,655.43l1.91,1.06Z"/><path class="cls-45" d="M63.91,663.94c.07.49-.3,1-1.07,1.42a4.44,4.44,0,0,1-2.47.64,5.43,5.43,0,0,1-2.54-.72l-2-1.1-2.82,1.64a.57.57,0,0,1-.26.08.54.54,0,0,1-.25-.06l-.54-.31c-.07,0-.11-.08-.11-.13a.22.22,0,0,1,.12-.15L59.32,661a.47.47,0,0,1,.26-.08.42.42,0,0,1,.25.06l2.76,1.53Q63.82,663.19,63.91,663.94Zm-5.23.78a3,3,0,0,0,3.12.06q.71-.42.69-.87c0-.3-.31-.6-.87-.91l-1.9-1.06-2.94,1.71,1.9,1.07Z"/><path class="cls-9" d="M186.13,724.4c0,10.71-14.95,19.39-33.4,19.39s-33.4-8.68-33.4-19.39,15-19.4,33.4-19.4S186.13,713.68,186.13,724.4Z"/><path class="cls-10" d="M183.6,689.71l-14.75-1.21-10.51-.94-21.62.67-13.74.94-2.22,1.48,3.86,31.74v0c0,8.84,12.34,16,27.57,16,14.76,0,26.8-6.74,27.53-15.2l0-.05Z"/><path class="cls-11" d="M183.61,690.3c0,9.1-14.07,16.47-31.42,16.47s-31.42-7.37-31.42-16.47,14.07-16.48,31.42-16.48S183.61,681.19,183.61,690.3Z"/><path class="cls-12" d="M172.66,690.3c0,5.93-9.16,10.73-20.47,10.73s-20.48-4.8-20.48-10.73,9.17-10.74,20.48-10.74S172.66,684.36,172.66,690.3Z"/><g class="cls-1"><path class="cls-2" d="M227.36,613a3.82,3.82,0,0,0-3.54-.1l-27.07,15.17a1.12,1.12,0,0,0-.05,2.1l33.79,21.34a3.82,3.82,0,0,0,3.54.1l27.07-15.17a1.12,1.12,0,0,0,.06-2.1Z"/></g><path class="cls-10" d="M259.41,633.6l.1-2.8a1.07,1.07,0,0,0-.61-1.12l-30.3-19.13a3.42,3.42,0,0,0-3.17-.09l-24.27,13.6a1.12,1.12,0,0,0-.68,1l-.11,2.86a.49.49,0,0,0,0,.17v0h0a1.22,1.22,0,0,0,.62.87l30.3,19.13a3.44,3.44,0,0,0,3.18.08l24.27-13.59a1.11,1.11,0,0,0,.67-1Z"/><path class="cls-81" d="M228.6,610.55a3.42,3.42,0,0,0-3.17-.09l-24.27,13.6a1,1,0,0,0,0,1.88l30.3,19.14a3.42,3.42,0,0,0,3.17.08l24.27-13.59a1,1,0,0,0,0-1.89Z"/><path class="cls-82" d="M261.74,627.55v-2.8a1.07,1.07,0,0,0-.65-1.1L230,605.77a3.47,3.47,0,0,0-3.18.05L203.15,620.4a1.13,1.13,0,0,0-.64,1v3.05h0a1.19,1.19,0,0,0,.66.84l31.06,17.88a3.45,3.45,0,0,0,3.17-.05l23.69-14.58a1.12,1.12,0,0,0,.64-1Z"/><path class="cls-83" d="M230,605.77a3.47,3.47,0,0,0-3.18.05L203.15,620.4a1,1,0,0,0,0,1.88l31.06,17.88a3.39,3.39,0,0,0,3.17,0l23.69-14.57a1,1,0,0,0,0-1.89Z"/><path class="cls-45" d="M229.54,616.68a2.63,2.63,0,0,1,1.12,1,1.07,1.07,0,0,1,.07,1,2.07,2.07,0,0,1-.76.84l-.21.06-.2,0-.47-.25-.11-.12s0-.09.08-.15c.41-.37.58-.69.49-1s-.35-.55-.83-.81a3.58,3.58,0,0,0-3.66.25l-.83.49-.85.53c-1.23.81-1.3,1.51-.2,2.11a3.45,3.45,0,0,0,1.45.43,4,4,0,0,0,1.66-.34.91.91,0,0,1,.26,0l.2,0,.47.26.09.11-.08.12a4.68,4.68,0,0,1-1.41.49,5.43,5.43,0,0,1-1.71,0,5.23,5.23,0,0,1-1.76-.59c-.84-.46-1.24-.94-1.2-1.48s.46-1.06,1.26-1.59c.18-.12.47-.3.88-.54l.9-.55a6.27,6.27,0,0,1,2.69-.82A4.82,4.82,0,0,1,229.54,616.68Z"/><path class="cls-45" d="M241.47,623.12a2.59,2.59,0,0,1,1,.86,1,1,0,0,1,.11.85,1.23,1.23,0,0,1-.53.67l-.21.06-.2,0-.48-.26-.09-.1.05-.14a.6.6,0,0,0,.25-.69,1.4,1.4,0,0,0-.72-.71,3.19,3.19,0,0,0-1.29-.39,2,2,0,0,0-1.17.27c-.23.14-.36.29-.38.44a.68.68,0,0,0,.15.54,6.28,6.28,0,0,0,.67.81,5,5,0,0,1,.8,1,.82.82,0,0,1,.1.73,1.54,1.54,0,0,1-.69.68,3.6,3.6,0,0,1-2.14.53,5.49,5.49,0,0,1-2.36-.68,3,3,0,0,1-1.1-.89,1.05,1.05,0,0,1-.2-.89,1.4,1.4,0,0,1,.59-.73l.21,0,.19,0,.47.25c.11.07.13.15,0,.25a.7.7,0,0,0-.23.71c.07.27.35.54.85.81a3.58,3.58,0,0,0,1.52.47,2.07,2.07,0,0,0,1.22-.29q.34-.21.36-.45a.85.85,0,0,0-.19-.55,10.85,10.85,0,0,0-.76-.87,3.41,3.41,0,0,1-.69-.92.81.81,0,0,1,0-.71,1.64,1.64,0,0,1,.7-.69,3.52,3.52,0,0,1,1.24-.44,4.85,4.85,0,0,1,1.47,0A5.33,5.33,0,0,1,241.47,623.12Z"/><path class="cls-45" d="M235.57,619.93a2.47,2.47,0,0,1,1,.86,1.08,1.08,0,0,1,.12.86,1.27,1.27,0,0,1-.54.66l-.21.06-.2,0-.47-.25-.1-.11.05-.14a.6.6,0,0,0,.26-.68,1.42,1.42,0,0,0-.72-.72,3.24,3.24,0,0,0-1.3-.39,1.91,1.91,0,0,0-1.16.27.6.6,0,0,0-.24,1,6.55,6.55,0,0,0,.68.81,5.46,5.46,0,0,1,.8,1,.86.86,0,0,1,.09.74,1.55,1.55,0,0,1-.68.68,3.79,3.79,0,0,1-2.14.52,5.32,5.32,0,0,1-2.37-.68,3,3,0,0,1-1.1-.89,1.06,1.06,0,0,1-.19-.88,1.29,1.29,0,0,1,.59-.73l.2-.06.2,0,.47.26c.11.06.13.14,0,.25a.64.64,0,0,0-.23.7c.06.27.34.54.85.81a3.47,3.47,0,0,0,1.5.47A2.16,2.16,0,0,0,232,624c.23-.14.35-.28.37-.44a.81.81,0,0,0-.2-.55,8.74,8.74,0,0,0-.75-.88,3.63,3.63,0,0,1-.7-.91.9.9,0,0,1-.05-.73,1.78,1.78,0,0,1,.71-.67,3.24,3.24,0,0,1,1.24-.45,4.56,4.56,0,0,1,1.47,0A5.16,5.16,0,0,1,235.57,619.93Z"/></g></g></svg>